<svg width="235" height="26" viewBox="0 0 235 26" fill="none" xmlns="http://www.w3.org/2000/svg">
<path d="M29.4092 6.69727H27.3162C26.4826 6.69727 25.8086 7.37132 25.8086 8.20501V23.7614C25.8086 24.5951 26.4826 25.2692 27.3162 25.2692H29.4092C30.2428 25.2692 30.9168 24.5951 30.9168 23.7614V8.22275C30.9345 7.37132 30.2428 6.69727 29.4092 6.69727Z" fill="#EA0029"/>
<path d="M21.8712 6.69727C20.541 6.69727 19.4413 7.49549 18.8914 8.63073L13.3043 20.4799C13.1802 20.7637 12.9141 21.2249 12.6835 21.2249C12.4707 21.2249 12.2046 20.7637 12.0627 20.4799L6.47563 8.63073C5.92579 7.49549 4.82611 6.69727 3.49584 6.69727H0.25L9.10069 23.8501C9.96979 25.5352 11.779 25.4998 12.7013 25.4998C13.9783 25.4998 15.4682 25.4288 16.2486 23.8501L25.0993 6.69727H21.8712Z" fill="#EA0029"/>
<path d="M119.673 3.85931C119.673 3.02561 118.999 2.35156 118.165 2.35156H116.072C115.238 2.35156 114.564 3.02561 114.564 3.85931V19.2206C114.564 21.562 115.398 22.9456 116.888 23.9212C118.342 24.8614 119.992 25.2871 123.114 25.2871H124.799C125.632 25.2871 126.306 24.613 126.306 23.7793V22.1297H125.029C124.107 22.1297 122.174 22.0942 121.038 21.3314C119.549 20.3558 119.673 18.5998 119.673 17.3404V3.85931Z" fill="#EA0029"/>
<path d="M86.8587 22.13C85.9364 22.13 84.0031 22.0945 82.8679 21.3318C81.378 20.3562 81.5022 18.6001 81.5022 17.3407V9.85516H86.4685C87.3021 9.85516 87.9761 9.18111 87.9761 8.34741V6.69776H81.4844V3.85964C81.4844 3.02595 80.8104 2.3519 79.9768 2.3519H77.8838C77.0502 2.3519 76.3762 3.02595 76.3762 3.85964V6.7155H65.6809V3.85964C65.6809 3.02595 65.0069 2.3519 64.1733 2.3519H62.0803C61.2289 2.33416 60.5549 3.02595 60.5549 3.85964V6.7155H57.3623V8.36515C57.3623 9.19884 58.0363 9.8729 58.8699 9.8729H60.5549V19.2387C60.5549 21.5979 61.3886 22.9637 62.8785 23.9393C64.3329 24.8794 65.9824 25.3051 69.1041 25.3051H70.7891C71.6227 25.3051 72.2967 24.6311 72.2967 23.7974V22.1477H71.0197C70.0974 22.1477 68.164 22.1123 67.0289 21.3495C65.539 20.3739 65.6632 18.6178 65.6632 17.3584V9.85516H76.3585V19.2209C76.3585 21.5801 77.1921 22.946 78.682 23.9216C80.1364 24.8617 81.7859 25.2874 84.9076 25.2874H86.5926C87.4263 25.2874 88.1003 24.6133 88.1003 23.7797V22.13H86.8587Z" fill="#EA0029"/>
<path d="M55.465 23.7796V22.13H44.1134C42.2333 22.13 40.0871 21.9171 39.4309 19.9305C39.2535 19.3628 39.1293 18.1744 39.1293 17.3761H52.6271C53.5494 17.3761 54.4185 17.2342 55.128 16.6666C56.0858 15.9039 56.2277 14.8041 56.2277 13.864C56.2277 11.5225 55.6601 9.19883 52.9463 7.83299C50.8002 6.75096 47.9978 6.64453 45.284 6.64453C43.0846 6.64453 39.1471 6.64453 36.6107 8.40061C34.0743 10.1567 33.8438 12.711 33.8438 16.1877C33.8438 18.6356 33.9679 21.2076 35.511 22.9637C37.4443 25.1277 40.2468 25.3051 42.6058 25.3051H53.9751C54.791 25.2874 55.465 24.6133 55.465 23.7796ZM50.9066 13.119C50.9066 13.6156 50.7824 14.201 49.7714 14.201H42.4816C40.637 14.201 39.1293 15.0524 39.1293 16.099V14.201C39.1648 12.9771 39.1293 11.966 40.1758 11.0081C41.577 9.74872 43.6877 9.78419 45.0357 9.78419C46.4901 9.78419 48.1396 9.85515 49.4167 10.6179C50.1617 11.0791 50.9066 11.966 50.9066 13.119Z" fill="#EA0029"/>
<path d="M110.91 23.7796V22.13H99.5587C97.6786 22.13 95.5324 21.9171 94.8762 19.9305C94.6988 19.3628 94.5746 18.1744 94.5746 17.3761H108.072C108.995 17.3761 109.864 17.2342 110.573 16.6666C111.531 15.9039 111.673 14.8041 111.673 13.864C111.673 11.5225 111.105 9.19883 108.392 7.83299C106.245 6.75096 103.443 6.64453 100.729 6.64453C98.53 6.64453 94.5924 6.64453 92.056 8.40061C89.5196 10.1567 89.2891 12.711 89.2891 16.1877C89.2891 18.6356 89.4132 21.2076 90.9563 22.9637C92.8896 25.1277 95.6921 25.3051 98.0511 25.3051H109.42C110.236 25.2874 110.91 24.6133 110.91 23.7796ZM106.352 13.119C106.352 13.6156 106.228 14.201 105.217 14.201H97.9269C96.0645 14.201 94.5746 15.0524 94.5746 16.099V14.201C94.6101 12.9771 94.5746 11.966 95.6211 11.0081C97.0223 9.74872 99.133 9.78419 100.481 9.78419C101.935 9.78419 103.585 9.85515 104.862 10.6179C105.607 11.0791 106.352 11.966 106.352 13.119Z" fill="#EA0029"/>
<path d="M29.4092 1.5H27.3162C26.4826 1.5 25.8086 2.17405 25.8086 3.00775V3.43347V6.6973H25.8263C25.9682 5.84586 26.9438 4.94121 28.3627 4.94121H29.4092C30.2428 4.94121 30.9168 4.26716 30.9168 3.43347V3.00775C30.9345 2.17405 30.2428 1.5 29.4092 1.5Z" fill="#EA0029"/>
<path d="M137.366 25.5L143.702 10.404C144.006 9.684 144.35 9.188 144.734 8.916C145.134 8.644 145.71 8.508 146.462 8.508C147.182 8.508 147.742 8.652 148.142 8.94C148.558 9.212 148.918 9.7 149.222 10.404L155.558 25.5H152.222L150.494 21.252H142.406L140.702 25.5H137.366ZM145.982 12.156L143.222 18.996H149.678L146.942 12.156C146.766 11.692 146.606 11.46 146.462 11.46C146.318 11.46 146.158 11.692 145.982 12.156ZM160.012 25.5H156.844V8.7H160.012V25.5ZM172.14 25.5H168.972V11.22C168.972 9.54 169.788 8.7 171.42 8.7H179.893C181.397 8.7 182.469 9.148 183.109 10.044C183.765 10.924 184.093 12.244 184.093 14.004C184.093 17.748 182.797 19.62 180.204 19.62H178.525V19.74L184.429 25.5H180.349L174.924 20.052C174.396 19.492 174.132 19.02 174.132 18.636V18.252C174.132 17.9 174.252 17.62 174.492 17.412C174.748 17.204 175.1 17.1 175.548 17.1H178.812C179.628 17.1 180.164 16.852 180.42 16.356C180.692 15.86 180.828 15.076 180.828 14.004C180.828 12.98 180.668 12.26 180.349 11.844C180.045 11.428 179.413 11.22 178.452 11.22H173.34C172.86 11.22 172.54 11.3 172.38 11.46C172.22 11.62 172.14 11.94 172.14 12.42V25.5ZM185.013 25.5L191.349 10.404C191.653 9.684 191.997 9.188 192.381 8.916C192.781 8.644 193.357 8.508 194.109 8.508C194.829 8.508 195.389 8.652 195.789 8.94C196.205 9.212 196.565 9.7 196.869 10.404L203.206 25.5H199.87L198.141 21.252H190.053L188.349 25.5H185.013ZM193.629 12.156L190.869 18.996H197.325L194.589 12.156C194.413 11.692 194.253 11.46 194.109 11.46C193.965 11.46 193.805 11.692 193.629 12.156ZM218.148 25.5H211.14C209.748 25.5 208.572 25.3 207.612 24.9C206.652 24.484 205.916 23.884 205.404 23.1C204.892 22.3 204.532 21.42 204.324 20.46C204.116 19.5 204.012 18.38 204.012 17.1C204.012 15.82 204.116 14.7 204.324 13.74C204.532 12.78 204.892 11.908 205.404 11.124C205.916 10.324 206.652 9.724 207.612 9.324C208.572 8.908 209.748 8.7 211.14 8.7H217.884V11.22H212.628C210.58 11.22 209.172 11.636 208.404 12.468C207.652 13.284 207.276 14.828 207.276 17.1C207.276 19.372 207.652 20.924 208.404 21.756C209.172 22.572 210.58 22.98 212.628 22.98H218.148V25.5ZM234.016 22.98V25.5H223C221.368 25.5 220.552 24.66 220.552 22.98V11.22C220.552 9.54 221.368 8.7 223 8.7H233.92V11.22H224.92C224.44 11.22 224.12 11.3 223.96 11.46C223.8 11.62 223.72 11.94 223.72 12.42V15.66H233.68V18.18H223.72V21.78C223.72 22.26 223.8 22.58 223.96 22.74C224.12 22.9 224.44 22.98 224.92 22.98H234.016Z" fill="#EA0029"/>
</svg>
