<?xml version="1.0" encoding="UTF-8"?>
<svg id="a" data-name="Layer 2" xmlns="http://www.w3.org/2000/svg" viewBox="0 0 570.17 518.06">
  <defs>
    <style>
      .c {
        fill: #27ae60;
      }
    </style>
  </defs>
  <g id="b" data-name="Layer 1-2">
    <g>
      <path class="c" d="M277.64,150l5.51,96.99,3.43-96.56,21.07.56-9.99,112,2.12-3.37,18.95-102.56c3.15.09,20.22,3.2,20.8,5.5l-25.87,106.42,37-103,19.91,8.6-42.91,102.4,49.49-90.01,1.15-.91,18.35,8.93-55.99,93.98,60-78.57c1.2-.95,1.64-.02,2.5.52,4.76,2.98,9.78,8.23,14.45,11.65l-68.95,83.4,67.97-66.54c1.95-.88,15.06,12.3,15.05,14.04l-.5,1.48-72.53,65.01,97.54-67.96c1.93-.48,1.22.52,1.72,1.22,3.44,4.82,5.81,10.75,9.61,15.43l-102.88,68.31,103.99-50.99c-.23,4.94,9.63,16.56,6.02,20.51l-105.01,47.48,99.04-30.58,4.92,19.53-102.95,29.06,177.97-28.5c-1.93,2.52-3.73,5.82-5.94,8.05-28.29,28.49-118.59,31.5-158.53,35.47-3.75.37-9.34.64-12.5,1.99h157.99c-5.38,10.69-18.05,16.42-28.37,19.13-17.08,4.48-31.96,3.35-49.09,2.83-29.26-.88-58.44-2.15-87.54-4.95l3.37,2.12,130.63,23.88c-17.17,18.55-44.92,12.98-67.01,8.5-26.48-5.37-52.52-13.52-78.99-18.5l107,43c-17.3,13.59-39.79,5.75-57.97-1.54-21.61-8.67-42.17-20.6-64.03-28.46,20.07,18.16,46.01,30.59,67.32,47.17,1.03.81,8.24,5.49,6.68,6.81-8.11.87-14.11,1.29-22.2-.29-20.59-4.02-47.39-26.8-63.27-40.73-10.92-9.58-22.8-24.27-33.52-32.48-1-.77-1.27-1.94-3-1.49-1.44,15.02-1.29,30.39-1.05,45.54.19,12.17.75,24.69,1,37,.17,8.45,5.43,21.69-8.46,21.54-14.97-.16-8.62-24.78-8.46-34.54.37-22.5-.36-45.05-.05-67.54-1.58-1.78-8.97,8.48-9.97,9.52-8.5,8.87-17.85,17.8-27.01,25.99-21.62,19.32-48.66,44.91-80.01,38.47l70.76-52.69,1.23-3.3c-22.24,9.98-43.31,23.09-65.64,32.85-9.85,4.31-24,9.73-34.83,9.14-2.35-.13-20.22-4.25-17.52-7.98l102-46c-21.18,4.92-41.76,12.23-62.78,17.71-24.53,6.39-58.82,18.27-79.2-2.22l129.97-30.49c-2.48.05-5-.17-7.49,0-38.11,2.59-117.55,20.56-147.99-4.03-.95-.77-6.66-5.96-5.52-6.98h69.54c25.49-3.92,52.5-2.04,77.95-5.01,1.28-.15,5.31-.35,5.5-1.98l-99.37-7.13c-26.78-3.57-58.55-8.04-74.63-32.37-.04-1.4,25.44,3.97,27.68,4.32,48.86,7.66,98.12,13.65,147.33,18.16l-140.92-36.07,6.4-20.78,136.52,38.85-101-40c2-6.26,4.37-12.53,6.92-18.59.39-.93-.56-1.89,1.41-1.25l97.67,42.84-103.89-62.36c3.5-3.38,6.48-13.85,9.38-16.64.91-.87,1.45-1.36,2.77-.84l98.73,63.85-69.57-57.97c-.97-1.16-.09-1.68.52-2.55,1.24-1.81,12.2-13.61,13.42-13.4l64.63,58.93-65.95-76.39,16.46-13.59,60.49,75.98-56.9-89.34c.33-1.08,13.4-9.19,15.22-9.89.92-.36,1.67-1.22,2.72-.35l50.97,87.58-45.99-101.98c6.23-1.92,12.29-6.01,18.34-8.2,1.05-.38,1.01-1.46,2.15.19l40.51,100.99-29.07-106.35,18.79-5.48,2.1,1.5,22.16,102.33-11.99-110.99,22-2h.01Z"/>
      <path class="c" d="M414.36,33.21c6.12-1.39,14.77,3.12,16.06,9.53,1.49,7.33-8.35,26.99-14.86,30.68-8.01,4.54-19.54-2.97-18.88-11.8.49-6.62,10.78-26.84,17.68-28.41ZM417.37,39.16c-5.46.85-14.86,20.46-13.55,25.11.91,3.22,5.1,4.44,8.12,3.53,3.38-1.02,10.4-15.15,11.22-18.79,1.05-4.68.19-10.79-5.78-9.86h0Z"/>
      <path class="c" d="M320.35,2.21c9.65-2.22,16.97,3.62,17.33,13.34.2,5.52-3.09,23.15-7.09,26.89-4.9,4.57-16.75,2.91-19.72-3.18-3.67-7.52-1.06-34.63,9.48-37.06h0ZM322.37,8.18c-4.57,1.3-6.68,18.07-6.76,22.37-.16,9.01,8.3,12.03,11.81,4.73,1.82-3.79,4.58-21.63,2.3-24.85-1.36-1.92-5.09-2.9-7.35-2.25h0Z"/>
      <path class="c" d="M137.4,39.22c8.71-1.27,13.12,6.01,17.05,12.47,4.4,7.24,10.53,18.19,2.53,25.15-12.36,10.76-21.32-2.83-26.51-13.17-4.77-9.51-7.02-22.42,6.92-24.45h0ZM138.37,45.16c-1.97.31-4.61,2.76-5.57,4.57-1.09,4.11,8.65,21.21,12.3,23.33,5.13,2.97,10.6-1.09,9.12-7.06-1.12-4.52-10.56-21.67-15.84-20.83h0Z"/>
      <path class="c" d="M61.37,105.23c8.62-1.77,26.61,12.85,28.8,20.74,2.77,9.99-7.22,18.62-17.26,15.27-3.39-1.13-16.46-12.3-18.51-15.49-4.87-7.59-2.48-18.58,6.97-20.52h0ZM62.37,111.14c-2.37.65-5.1,4.49-4.58,7.12.8,4.03,16.12,17.5,20.45,17.75s7.68-5.59,4.85-9.96c-2.54-3.92-16.18-16.14-20.72-14.91Z"/>
      <path class="c" d="M495.41,97.2c8.66-1.2,16.22,8.73,13.77,16.85-1.68,5.6-16.71,18.92-22.51,20.48-9.66,2.6-18.61-8.36-14.53-17.54,2.51-5.65,17.04-18.93,23.27-19.79h0ZM495.36,104.2c-3.24.74-15.04,11.49-16.59,14.42-2.39,4.55-.35,11.01,5.13,10.2,4.01-.6,17.87-13.03,19.23-16.88,1.84-5.25-2.45-8.95-7.77-7.74h0Z"/>
      <path class="c" d="M110.29,74.35c7.54,7.01,18.68,22.03,7.89,30.69-9.2,7.39-16.88.1-23.05-7.03-7.29-8.42-14.98-19.6-2.44-27.47,6.59-4.13,12.62-.82,17.6,3.81h0ZM96.36,75.2c-11.4,3.39,8.36,26.03,13.87,26.81,6.11.86,7.66-5.63,5.27-10.38-1.55-3.09-12.44-16.13-15.41-16.65-1.23-.21-2.53-.14-3.74.21h.01Z"/>
      <path class="c" d="M232.37,57.23c11.28-2.35,15.23,5.37,17.78,14.76,2.42,8.9,5.67,23.73-6.43,26.57-9.71,2.28-13.76-1.71-16.8-10.34s-7.63-28.27,5.45-30.99h0ZM240.41,64.24c-3.29-3.3-10.26-1.08-10.76,4.35-.32,3.45,3.79,21.6,6.41,23.49,3.53,2.53,8.97,1.45,9.63-3.53.5-3.83-2.92-21.95-5.28-24.31Z"/>
      <path class="c" d="M440,96.65c-7.69-8.47,4.24-24.78,11.12-30.67,6.44-5.5,14.36-5.88,19.96,1.08,6.48,8.05-1.99,19.1-7.47,25.41-6.51,7.51-15.03,13.62-23.61,4.18h0ZM444.88,93.76c1.5,1.5,5.78,1.61,7.74.72,2.57-1.18,13.6-16.06,14-19.06.7-5.22-3.15-8.78-8.27-7.22-4.3,1.31-18.28,20.76-13.47,25.57h0Z"/>
      <path class="c" d="M554.31,202.66c-3.57,3.68-22.89,10.56-27.94,10.11-9.75-.86-14.23-13.94-7.74-21.29,3.46-3.92,22.2-10.8,27.39-10.45,9.29.64,15.04,14.66,8.28,21.62h0ZM542.38,188.24c-5.48.89-27.75,8.42-19.26,16.78,3.48,3.43,21.33-3.1,25.01-6.03,6.92-5.51,2.84-12.14-5.75-10.75Z"/>
      <path class="c" d="M276.37,52.23c9.32-1.91,15.88,1.75,17.18,11.35.58,4.26.64,17.51-.38,21.44-2.86,10.94-19.08,12.65-23.72,1.66-3.37-7.99-4.23-32.17,6.92-34.46h0ZM285.41,86.77c3.14-3.23,1.98-20.4,1.01-25.05-1.12-5.38-9.87-5.32-11.33-.77s-1.21,17.87-.23,22.34c1.08,4.94,7.65,6.47,10.56,3.48h-.01Z"/>
      <path class="c" d="M360.37,65.24c7.97-1.62,16.51,3.63,16.3,12.22-.15,6.26-7.39,24.92-13.11,27.96-5.76,3.07-16.26-.78-17.71-7.13-1.79-7.83,5.6-31.24,14.51-33.06h0ZM359.92,72.3c-2.13,1.77-7.85,18.3-8.08,21.47-.4,5.7,6.66,8.46,10.31,5.24,1.88-1.66,7.12-16.63,7.39-19.63.58-6.49-4.27-11.53-9.63-7.08h0Z"/>
      <path class="c" d="M435.38,108.21c8.46-.81,14.73,7.9,13.03,16.07-1.15,5.53-13.53,19.92-18.76,22.23-9.26,4.09-18.83-4.95-16.78-14.78,1.49-7.12,14.81-22.78,22.51-23.52h0ZM436.31,114.22c-6.11,1.8-24.56,21.8-14.65,26.25,5.43,2.43,8.7-2.45,11.95-6,5.06-5.52,15.17-17.3,2.69-20.25h.01Z"/>
      <path class="c" d="M92.41,151.18c7.31-.81,23.92,11.08,27.09,17.46,4.21,8.48-2.6,19.31-12.37,18.41-5.75-.53-22.12-12.53-24.34-17.7-3.27-7.63,1.25-17.23,9.61-18.16h0ZM92.37,157.16c-3.18.47-5.2,4.24-4.76,7.29.57,3.93,17.51,16.78,21.45,16.54,4.61-.28,6.99-5.53,4.63-9.55-2.1-3.58-17.39-14.87-21.32-14.28h0Z"/>
      <path class="c" d="M150.39,158.21c10.64-2.04,28.74,16.69,27.19,27.22-.81,5.53-6.71,10.72-12.35,10.51-7.92-.3-23.41-16.97-24.41-24.71-.63-4.92,4.51-12.05,9.57-13.02h0ZM151.37,164.15c-1.51.41-4.37,3.97-4.51,5.5-.37,4.02,15.39,19.87,19.28,19.9,5.72.04,6.72-6.17,3.96-10.51-2.2-3.46-14.77-15.96-18.73-14.9h0Z"/>
      <path class="c" d="M119.35,117.21c2.09-.48,4.47-.41,6.57.02,6.54,1.35,21.9,18.85,21.5,26.01-.51,8.98-10.35,14.32-18.51,11.01-4.04-1.64-17.48-17.22-18.19-21.81-.94-6.06,2.34-13.77,8.64-15.22h-.01ZM139.4,147.76c4.87-4.87-3.28-13.67-6.74-17.29-3.23-3.37-7.02-8.55-12.06-7.06-9.67,2.88.31,14.13,4,18.11,3.22,3.47,9.77,11.25,14.79,6.24h.01Z"/>
      <path class="c" d="M297.35,103.21c4.7-1.08,11.28.4,14.14,4.44,4.21,5.97,2.79,29.49-2.9,34.79-6.35,5.91-19.48,2.65-20.85-7.03-1.16-8.16-.87-29.79,9.62-32.2h-.01ZM296.88,110.24c-2.19,2.18-3.64,19.41-2.99,23.03.95,5.31,6.75,8.35,10.28,4.76,2.35-2.39,4.01-19.73,3.41-23.47-.87-5.42-7.25-7.76-10.7-4.32h0Z"/>
      <path class="c" d="M259.43,104.21c8.41-.62,12,5.74,13.74,12.76,3.03,12.18,3.58,34.55-15.59,28.58-9.89-3.08-17.49-39.91,1.85-41.35h0ZM258.37,110.15c-6.07,1.62-3.7,18.24-2.45,23.07,1.42,5.48,5.55,10.56,10.78,5.33,3.01-3.01.99-18.55-.3-22.81-.99-3.25-4.26-6.6-8.02-5.6h-.01Z"/>
      <path class="c" d="M183.41,132.19c12.02-1.38,28.67,27,19.26,36.34-12.79,12.71-25.85-7.41-29.5-18.55-2.7-8.26,1.12-16.75,10.23-17.79h0ZM181.3,139.17c-8.86,3.04,7.16,27.19,11.99,27.62,1.01.09,4.76-1.6,5.36-2.28,4.08-4.62-4.91-17.8-8.19-21.83-2.53-3.11-4.62-5.07-9.16-3.51h0Z"/>
      <path class="c" d="M534.38,306.24c8.36-1.4,30.46-.52,32.2,10.32,3.1,19.31-18.25,17.21-30.78,13.78-16.13-4.42-14.27-21.95-1.43-24.1h.01ZM535.35,312.22c-4.15.93-6.1,4.9-4.21,8.79,2.06,4.25,33.61,10.7,29.31-3.31-1.39-4.53-20.95-6.41-25.1-5.48Z"/>
      <path class="c" d="M514.33,336.69c-6.4,6.92-37.85,7.07-39.65-6.28-2.32-17.27,22.49-17.51,33.76-13.72,8.58,2.89,11.65,13.76,5.89,19.99h0ZM485.36,322.21c-6.57,1.45-6.44,9.75.22,11.35,5.79,1.4,33.74,2.77,24.51-9.51-2.15-2.86-20.84-2.69-24.72-1.84h-.01Z"/>
      <path class="c" d="M431.37,181.23c10.72-2.2,18.66,7.33,14.52,17.51-2.12,5.22-19,17.94-24.83,18.2-9.1.4-14.35-10.26-11.15-18.18,2.03-5.02,16.3-16.48,21.46-17.53ZM433.37,187.18c-2.77.59-17.07,12.38-18.22,14.84-1.83,3.94,1.81,8.84,5.59,8.51,4.4-.38,21.1-13.62,20.69-17.88-.34-3.51-4.51-6.23-8.06-5.48h0Z"/>
      <path class="c" d="M450.38,216.24c5.83-.93,10.14-1.24,13.69,3.83,10.21,14.58-10.51,25.24-22.38,27.47-12.52,2.35-19.48-9.99-12.49-19.48,3.02-4.1,16.18-11.02,21.18-11.82ZM452.38,222.24c-3.4.57-16.26,7.11-18.31,9.68-2.88,3.62-1.28,9.67,3.11,10.09,3.08.3,20.03-7.41,22.05-9.93,4.41-5.5.66-11.09-6.84-9.84h0Z"/>
      <path class="c" d="M374.4,127.19c5.52-1.04,13.29,3.77,14.19,9.37,1.25,7.78-8.38,27.64-15.88,29.99s-15.28-2.1-16.66-9.52,10.02-28.27,18.36-29.84h0ZM376.37,133.16c-5.8.91-16.37,20.55-13.23,25.86,1.29,2.19,6.84,2.79,9,.97,3.19-2.68,12.03-19.83,10.01-23.99-1.36-1.65-3.55-3.19-5.78-2.84h0Z"/>
      <path class="c" d="M34.35,148.21c6.93-1.59,28.5,8.54,30.08,15.5,2.26,9.97-3.31,18.73-14.04,17.05-6.13-.96-23.48-9.85-24.69-16.31-1.09-5.82,2.38-14.8,8.66-16.24h-.01ZM36.36,154.18c-3.82.58-5.76,5.44-4.21,8.8,2.41,5.23,28.36,19.38,27.48,5.59-.34-5.36-18.9-15.06-23.27-14.39h0Z"/>
      <path class="c" d="M127.29,189.36c6.59-.29,22.2,9.21,25.8,14.68,6.68,10.17-3.13,22.56-14.72,18.72-6.27-2.08-22.03-12.4-22.71-19.36-.6-6.15,5.38-13.77,11.64-14.04h0ZM127.28,195.25c-3.23.33-6.14,4.57-5.24,7.77,1.05,3.76,19.25,15.48,22.63,14.58,15.84-6.24-12.8-22.82-17.39-22.35h0Z"/>
      <path class="c" d="M219.41,114.19c14.81-2.09,28.46,36.84,10.51,40.57-9.47,1.97-12.79-2.48-16.45-10.1-4.92-10.26-10.31-28.19,5.94-30.48h0ZM219.37,120.16c-10.4,1.59.6,27.29,5.32,29.37s8.25-2.75,7.74-7.75c-.55-5.35-5.95-22.71-13.06-21.63h0Z"/>
      <path class="c" d="M405.36,151.21c8.92-2.01,16.94,5.92,15.06,15.07-1.25,6.08-14.51,21.26-20.5,22.5-8.48,1.75-16.78-6.39-14.86-14.83,1.33-5.87,14.36-21.4,20.31-22.74h-.01ZM408.38,157.18c-4.82.72-17.63,15.68-17.66,20.32-.03,4.2,5.29,6.67,8.9,5,2.7-1.25,14.35-15.23,14.85-18.25.62-3.72-2.14-7.66-6.09-7.07Z"/>
      <path class="c" d="M28.44,310.3c9.16-.6,18.63,1.84,18.13,13.12-.44,10.03-14.34,12.85-22.45,13.56-10.69.93-19.73.69-19.57-12.49.14-11.59,14.71-13.6,23.89-14.19ZM11.88,329.76c3.21,3.22,26.19-.49,28.28-4.76,1.26-2.59.27-6.36-2.12-7.89-3.13-2.02-19.5.73-23.4,2.39-4.26,1.82-5.79,7.22-2.77,10.26h0Z"/>
      <path class="c" d="M9.35,231.21c7.39-1.66,30.99.31,33.07,9.5,2.61,11.51-3.03,17.2-14.27,17.36-5.67.08-18.06-2.13-22.45-5.63-6.94-5.53-4.54-19.39,3.65-21.23ZM11.35,237.21c-4.68,1.34-5.44,8.28-.41,10.99,5.6,3.02,30.07,7.82,26.53-4.47-1.59-5.52-21.45-7.85-26.12-6.51h0Z"/>
      <path class="c" d="M63.99,212.65c-5.92-6.57-2.15-19.3,6.22-20.6,6.41-1,23.66,6.01,27.98,10.91,6.62,7.51.89,20.73-9.14,20.95-5.09.11-21.63-7.45-25.05-11.25h0ZM71.38,198.16c-4.01.71-5.57,4.98-4,8.58,2.29,5.27,30.06,16.89,28.1,3.99-.81-5.34-19.57-13.38-24.1-12.57Z"/>
      <path class="c" d="M47.31,198.34c6.71,6.88,2.18,19.33-7.25,20.57-6.37.84-23.61-4.1-27.83-8.98-5.98-6.92-1.15-20.08,8.17-20.67,5.57-.35,23,5.07,26.91,9.08h0ZM16.88,197.24c-2.81,6.1-1.56,8.28,4.07,10.95,4.85,2.3,21.43,8.38,23.51,1.08,2.86-10.03-24.15-15.48-27.59-12.04h.01Z"/>
      <path class="c" d="M63.4,245.27c7.39-1.09,27.94,1.33,30.03,10.44,4.21,18.38-15.5,17.61-27.85,14.85-5.77-1.29-11.87-3.59-12.87-10.12-1.27-8.23,2.35-13.94,10.69-15.17ZM61.34,252.2c-3.84,1.13-4.05,8.49.02,10.58,4.31,2.22,23.35,5.12,26.11.55,7.04-11.67-20.25-12.85-26.13-11.13Z"/>
      <path class="c" d="M493.42,279.28c9.97-1.24,27.34-1.84,27.22,12.23-.12,13.9-22.62,13.94-32.44,12.42-13.35-2.06-13.9-22.28,5.22-24.65h0ZM485.91,288.26c-3.7,3.94-.29,8.93,4.29,9.69,5.45.9,24,.75,24.42-6.52.59-10.22-25.61-6.47-28.71-3.17h0Z"/>
      <path class="c" d="M11.4,272.26c8.11-1.18,27.67-1.85,30.03,8.45,4.22,18.43-16.73,17.7-29.29,16.29-15.77-1.77-16.33-22.48-.74-24.74ZM12.38,278.24c-8.62,1.54-8.37,10.91-1.02,12.55,5.56,1.24,23.97,2,25.12-5.51,1.33-8.64-18.79-7.99-24.1-7.04Z"/>
      <path class="c" d="M107.35,225.21c9.37-2.13,32.61,5.8,32.95,17.44.62,21.56-35.8,9.13-39.9-.91-2.31-5.67.57-15.08,6.95-16.53h0ZM108.34,231.19c-4.66,1.44-4.07,7.65-.04,10.66s22.64,10.55,25.62,3.9c1.6-3.37.49-6.01-2.54-7.98-3.67-2.39-19.07-7.81-23.04-6.58h0Z"/>
      <path class="c" d="M514.33,260.69c-6.14,6.74-31.84,11.59-37.11,2.22-9.65-17.16,18.98-23.74,30.86-21.86,8.23,1.3,11.4,13.98,6.25,19.64ZM499.42,247.28c-5.45.6-23.63,4.7-16.87,13.31,2.61,3.32,17,.19,21.09-1.1,3.53-1.11,6.66-1.69,7.08-5.98.73-7.62-5.6-6.86-11.3-6.24h0Z"/>
      <path class="c" d="M360.65,53.97l10.76-32.52-6.64-3.94,2.45-5.55c2.58,1.33,12.34,2.09,12.41,5.45l-12.49,36.58-6.5-.03h0Z"/>
      <path class="c" d="M196.64,58h-6.49l-11.03-30-1.78-.86-5.75,1.45-1-6.07c3.57-.74,6.85-2.91,10.3-3.83.96-.26,1.43-1.09,2.23.3l13.52,39.01h0Z"/>
      <path class="c" d="M230.6,6.1c.3,11.54,5.67,25.45,6.07,36.51.17,4.67-1.55,4.9-5.94,4.34l-5.55-32.95-7.42-.07c-4.98-8.92,7.2-7,12.84-7.83Z"/>
      <path class="c" d="M328.56,56.09l-6.95,39.88-6.98-.99,6.01-33.99-6.57-.97c-.43-9.67,8.34-4.72,14.48-3.93h.01Z"/>
      <path class="c" d="M411.52,87.12l-19.89,35.88c-.9.67-6.23-2.31-5.86-4.31l16.71-27.4.09-2.19-5.92-2.1,3.03-5.97,11.85,6.1h-.01Z"/>
      <path class="c" d="M536.57,147.92l-34.46,19.95-3.37-4.48,27.96-17.83c2.61-2.89-6.49-6.81.91-9.14,3.95-1.24,8.68,8.03,8.96,11.51h0Z"/>
      <polygon class="c" points="565.17 227 567.18 241 526.17 246.01 526.23 240.05 558.52 235.85 560.06 234.42 559.29 228.12 565.17 227"/>
      <path class="c" d="M194.63,70l13.88,36.69c.38,2.11-4.69,4.03-5.79,3.24l-11.59-29.92-1.95-1.03-4.99,2.01c-7.14-7.47,4.81-9.43,10.44-10.98h0Z"/>
      <path class="c" d="M463.79,140.14l4.83-1.71,7.95,8.93-31.29,25.57c-1.37-1.15-4.31-2.82-3.2-4.91l25.54-21.51c0-.73-5.41-3.67-3.84-6.36h.01Z"/>
      <path class="c" d="M154.63,91l19.92,33.66-4.41,4.21c-2.5.01-14.63-25.6-17.5-27.41-2.32-1.47-4.85,1.11-6.5,2.44-8.56-6.14,3.38-9.9,8.49-12.9h0Z"/>
      <path class="c" d="M273.17,8.5l-1.65-1.34-6.35-.16c.03-.83-.09-1.69-.04-2.52.37-5.63,9.32-3.12,14.04-4.48l.57,41.08c-1.35,1.89-6.57.91-6.57-.56V8.51h0Z"/>
      <path class="c" d="M507.55,208.06l5.09,11.92-39.49,12.08-1.48-5.01c10.46-3.77,22.36-6.43,31.9-11.65l-1.94-6.39,5.91-.95h0Z"/>
      <path class="c" d="M347.64,113.01l-12.09,37.89-4.96-.36c-1.16-.78-.87-1.62-.77-2.76.46-4.89,10.7-28.8,8.79-30.75l-5.98-1.04c.93-10.79,8.27-2.93,15.01-2.98h0Z"/>
      <path class="c" d="M493.52,172.12l5.09,11.83c-5.13.85-32.64,19.11-34.98,17.63-1.57-1-2.26-3.59-1.08-5.13,3.24-4.23,22.01-10.37,26.09-14.97,2.42-2.74-.6-4.54-1.96-6.99l6.85-2.37h-.01Z"/>
      <polygon class="c" points="570.17 281 528.17 281 528.17 275 561.67 275 563.01 273.35 563.17 267 568.23 267.44 570.17 281"/>
      <polygon class="c" points="91.17 288 91.18 294 58.17 292.99 58.18 300 52.17 300 52.17 286.99 91.17 288"/>
    </g>
  </g>
</svg>