<svg id="svg" version="1.1" xmlns="http://www.w3.org/2000/svg" xmlns:xlink="http://www.w3.org/1999/xlink" width="400" height="400" viewBox="0, 0, 400,400"><g id="svgg"><path id="path0" d="M199.638 300.000 L 199.638 400.000 209.205 400.000 C 218.241 400.000,218.795 399.957,219.184 399.229 C 219.524 398.594,220.177 398.422,222.898 398.251 C 224.714 398.136,227.640 397.848,229.400 397.610 C 231.160 397.373,233.590 397.078,234.800 396.954 C 236.010 396.831,237.171 396.565,237.380 396.365 C 237.589 396.164,238.613 396.000,239.656 396.000 C 240.699 396.000,241.664 395.820,241.800 395.600 C 241.936 395.380,242.892 395.194,243.924 395.187 C 244.956 395.180,246.149 394.910,246.576 394.587 C 247.004 394.264,247.938 394.000,248.653 394.000 C 249.368 394.000,250.064 393.820,250.200 393.600 C 250.336 393.380,250.919 393.200,251.495 393.200 C 252.566 393.200,254.849 392.580,256.095 391.951 C 256.477 391.758,257.297 391.600,257.918 391.600 C 258.539 391.600,259.396 391.336,259.824 391.013 C 260.251 390.690,260.917 390.420,261.305 390.413 C 261.693 390.406,262.323 390.238,262.705 390.041 C 263.087 389.844,264.750 389.281,266.400 388.791 C 268.050 388.301,270.234 387.472,271.254 386.950 C 272.274 386.427,273.393 386.000,273.742 386.000 C 274.091 386.000,275.017 385.640,275.800 385.200 C 276.583 384.760,277.498 384.400,277.833 384.400 C 278.376 384.400,282.052 382.716,290.000 378.825 C 294.122 376.808,300.255 373.457,301.062 372.783 C 301.468 372.443,302.340 371.910,303.000 371.597 C 303.660 371.285,304.738 370.662,305.395 370.214 C 306.052 369.766,307.247 369.040,308.051 368.600 C 310.056 367.503,314.818 364.251,315.831 363.288 C 316.288 362.853,317.029 362.381,317.478 362.239 C 317.927 362.096,318.616 361.624,319.009 361.190 C 319.402 360.755,319.929 360.400,320.179 360.400 C 320.429 360.400,321.428 359.590,322.400 358.600 C 323.372 357.610,324.336 356.800,324.544 356.800 C 324.959 356.800,327.065 355.006,332.175 350.300 C 334.027 348.595,335.745 347.200,335.995 347.200 C 336.663 347.200,346.996 336.802,347.721 335.400 C 348.063 334.740,349.795 332.764,351.571 331.009 C 353.347 329.255,354.800 327.653,354.800 327.451 C 354.800 327.249,355.565 326.214,356.500 325.151 C 359.411 321.843,360.800 320.114,360.800 319.800 C 360.800 319.633,361.385 318.820,362.100 317.992 C 363.216 316.700,365.554 313.267,367.036 310.747 C 367.275 310.339,367.770 309.675,368.136 309.271 C 368.501 308.867,368.800 308.348,368.800 308.117 C 368.800 307.887,369.085 307.462,369.433 307.173 C 369.781 306.884,370.597 305.647,371.247 304.424 C 372.627 301.826,373.807 299.826,374.837 298.335 C 375.792 296.952,384.000 280.656,384.000 280.142 C 384.000 279.927,384.360 279.005,384.800 278.094 C 385.240 277.184,385.600 276.240,385.600 275.996 C 385.600 275.753,386.050 274.748,386.600 273.763 C 387.150 272.778,387.600 271.539,387.600 271.009 C 387.600 270.480,387.780 269.936,388.000 269.800 C 388.220 269.664,388.400 269.209,388.400 268.789 C 388.400 268.368,388.760 267.383,389.200 266.600 C 389.640 265.817,390.000 264.856,390.000 264.464 C 390.000 264.073,390.264 263.404,390.587 262.976 C 390.910 262.549,391.180 261.806,391.187 261.324 C 391.194 260.842,391.380 260.336,391.600 260.200 C 391.820 260.064,392.000 259.254,392.000 258.400 C 392.000 257.546,392.180 256.736,392.400 256.600 C 392.620 256.464,392.800 255.924,392.800 255.400 C 392.800 254.876,392.980 254.336,393.200 254.200 C 393.420 254.064,393.600 253.254,393.600 252.400 C 393.600 251.546,393.780 250.736,394.000 250.600 C 394.220 250.464,394.400 249.768,394.400 249.053 C 394.400 248.338,394.664 247.404,394.987 246.976 C 395.310 246.549,395.580 245.381,395.587 244.380 C 395.594 243.379,395.763 242.389,395.961 242.180 C 396.160 241.971,396.433 240.900,396.569 239.800 C 397.183 234.828,397.299 234.178,397.639 233.820 C 397.837 233.611,398.000 232.250,398.000 230.796 C 398.000 229.091,398.208 227.877,398.587 227.376 C 398.997 226.835,399.178 225.542,399.187 223.100 C 399.195 221.042,399.365 219.600,399.600 219.600 C 399.856 219.600,400.000 216.067,400.000 209.800 L 400.000 200.000 299.819 200.000 L 199.638 200.000 199.638 300.000 " stroke="none" fill="#2c74db" fill-rule="evenodd"></path><path id="path1" d="M90.400 199.184 C 90.400 199.319,90.085 199.442,89.700 199.459 C 85.169 199.657,84.000 199.781,84.000 200.066 C 84.000 200.250,83.100 200.400,82.000 200.400 C 80.900 200.400,80.000 200.580,80.000 200.800 C 80.000 201.020,79.406 201.200,78.680 201.200 C 77.954 201.200,77.189 201.362,76.980 201.559 C 76.771 201.756,75.880 202.020,75.000 202.144 C 71.611 202.622,70.385 202.901,70.173 203.244 C 70.052 203.440,69.524 203.600,69.000 203.600 C 68.476 203.600,67.936 203.780,67.800 204.000 C 67.664 204.220,67.113 204.400,66.576 204.400 C 66.039 204.400,65.600 204.580,65.600 204.800 C 65.600 205.020,65.150 205.200,64.600 205.200 C 64.050 205.200,63.600 205.380,63.600 205.600 C 63.600 205.820,63.150 206.000,62.600 206.000 C 62.050 206.000,61.600 206.180,61.600 206.400 C 61.600 206.620,61.139 206.800,60.576 206.800 C 59.996 206.800,59.660 206.973,59.800 207.200 C 59.936 207.420,59.687 207.600,59.247 207.600 C 58.488 207.600,46.822 213.380,46.400 213.965 C 46.290 214.118,45.480 214.673,44.600 215.201 C 43.720 215.728,42.730 216.439,42.400 216.782 C 42.070 217.125,41.305 217.660,40.700 217.970 C 40.095 218.281,39.600 218.685,39.600 218.868 C 39.600 219.050,39.374 219.200,39.098 219.200 C 38.822 219.200,37.831 219.920,36.897 220.800 C 35.963 221.680,35.019 222.400,34.799 222.400 C 34.580 222.400,34.400 222.580,34.400 222.800 C 34.400 223.020,34.240 223.200,34.045 223.200 C 33.610 223.200,24.000 232.718,24.000 233.149 C 24.000 233.318,22.921 234.613,21.602 236.028 C 20.283 237.443,19.203 238.825,19.202 239.100 C 19.201 239.375,19.050 239.600,18.868 239.600 C 18.685 239.600,18.281 240.095,17.970 240.700 C 17.660 241.305,17.125 242.070,16.782 242.400 C 16.439 242.730,15.728 243.720,15.201 244.600 C 14.673 245.480,14.122 246.290,13.975 246.400 C 13.828 246.510,13.299 247.410,12.800 248.400 C 12.301 249.390,11.781 250.290,11.646 250.400 C 11.398 250.600,11.047 251.314,9.830 254.083 C 9.472 254.899,9.003 255.674,8.789 255.807 C 8.575 255.939,8.400 256.397,8.400 256.824 C 8.400 257.251,8.220 257.600,8.000 257.600 C 7.780 257.600,7.600 258.151,7.600 258.824 C 7.600 259.537,7.433 259.944,7.200 259.800 C 6.860 259.590,6.596 260.709,6.753 261.700 C 6.779 261.865,6.620 262.000,6.400 262.000 C 6.180 262.000,6.000 262.360,6.000 262.800 C 6.000 263.240,5.820 263.600,5.600 263.600 C 5.380 263.600,5.200 263.962,5.200 264.405 C 5.200 264.848,5.020 265.568,4.800 266.005 C 4.580 266.442,4.220 267.158,4.000 267.595 C 3.780 268.032,3.600 268.741,3.600 269.171 C 3.600 269.601,3.440 270.052,3.244 270.173 C 2.901 270.385,2.622 271.611,2.144 275.000 C 2.020 275.880,1.756 276.771,1.559 276.980 C 1.362 277.189,1.200 278.029,1.200 278.847 C 1.200 279.680,0.980 280.407,0.700 280.500 C -0.029 280.743,-0.029 318.131,0.700 318.860 C 0.975 319.135,1.200 320.044,1.200 320.880 C 1.200 321.716,1.361 322.400,1.558 322.400 C 1.755 322.400,2.025 323.120,2.158 324.000 C 2.291 324.880,2.509 326.321,2.642 327.203 C 2.775 328.084,3.045 328.905,3.242 329.026 C 3.439 329.148,3.600 329.599,3.600 330.029 C 3.600 330.784,3.744 331.174,4.738 333.095 C 4.992 333.587,5.200 334.352,5.200 334.795 C 5.200 335.238,5.380 335.600,5.600 335.600 C 5.820 335.600,6.000 336.045,6.000 336.588 C 6.000 337.131,6.360 338.217,6.800 339.000 C 7.240 339.783,7.600 340.689,7.600 341.012 C 7.600 341.335,7.780 341.600,8.000 341.600 C 8.220 341.600,8.398 341.825,8.396 342.100 C 8.392 342.712,12.015 349.994,12.674 350.698 C 12.934 350.977,13.262 351.564,13.401 352.002 C 13.540 352.441,13.822 352.800,14.027 352.800 C 14.232 352.800,14.400 353.070,14.400 353.400 C 14.400 353.730,14.580 354.000,14.800 354.000 C 15.020 354.000,15.200 354.272,15.200 354.604 C 15.200 354.936,15.740 355.772,16.400 356.463 C 17.060 357.154,17.600 357.922,17.600 358.171 C 17.600 358.420,17.960 358.883,18.400 359.200 C 18.840 359.517,19.200 360.013,19.200 360.302 C 19.200 360.590,19.811 361.437,20.557 362.184 C 21.303 362.930,22.422 364.229,23.042 365.070 C 24.486 367.029,34.285 376.800,34.806 376.800 C 35.022 376.800,35.941 377.520,36.848 378.400 C 37.755 379.280,38.679 380.000,38.901 380.000 C 39.124 380.000,39.597 380.318,39.953 380.706 C 40.808 381.639,46.618 385.600,47.132 385.600 C 47.353 385.600,47.593 385.735,47.667 385.900 C 47.964 386.570,57.607 391.600,58.593 391.600 C 58.927 391.600,59.200 391.780,59.200 392.000 C 59.200 392.220,59.549 392.400,59.976 392.400 C 60.403 392.400,60.864 392.580,61.000 392.800 C 61.136 393.020,61.687 393.200,62.224 393.200 C 62.761 393.200,63.200 393.380,63.200 393.600 C 63.200 393.820,63.562 394.000,64.005 394.000 C 64.448 394.000,65.168 394.180,65.605 394.400 C 66.042 394.620,66.758 394.980,67.195 395.200 C 67.632 395.420,68.264 395.600,68.600 395.600 C 68.936 395.600,69.523 395.758,69.905 395.951 C 71.231 396.621,73.523 397.221,74.958 397.275 C 75.751 397.305,76.400 397.480,76.400 397.665 C 76.400 397.849,77.120 398.000,78.000 398.000 C 78.880 398.000,79.600 398.180,79.600 398.400 C 79.600 398.620,80.464 398.800,81.520 398.800 C 82.576 398.800,83.665 399.025,83.940 399.300 C 84.323 399.683,88.045 399.800,99.800 399.800 C 111.555 399.800,115.277 399.683,115.660 399.300 C 115.935 399.025,116.833 398.800,117.656 398.800 C 118.479 398.800,119.250 398.643,119.368 398.452 C 119.486 398.260,120.532 397.979,121.692 397.827 C 126.141 397.243,126.800 397.105,126.800 396.758 C 126.800 396.561,127.340 396.400,128.000 396.400 C 128.660 396.400,129.200 396.220,129.200 396.000 C 129.200 395.780,129.740 395.600,130.400 395.600 C 131.060 395.600,131.600 395.420,131.600 395.200 C 131.600 394.980,132.039 394.800,132.576 394.800 C 133.113 394.800,133.664 394.620,133.800 394.400 C 133.936 394.180,134.405 394.000,134.843 394.000 C 135.281 394.000,136.384 393.640,137.294 393.200 C 138.205 392.760,139.186 392.400,139.475 392.400 C 139.764 392.400,140.000 392.220,140.000 392.000 C 140.000 391.780,140.290 391.600,140.646 391.600 C 141.001 391.600,141.946 391.257,142.746 390.839 C 143.545 390.420,145.595 389.394,147.300 388.558 C 149.005 387.722,150.400 386.928,150.400 386.793 C 150.400 386.659,151.030 386.302,151.800 386.000 C 152.570 385.698,153.200 385.304,153.200 385.125 C 153.200 384.946,153.470 384.800,153.800 384.800 C 154.130 384.800,154.400 384.663,154.400 384.495 C 154.400 384.327,154.740 384.012,155.155 383.795 C 156.726 382.973,161.042 379.804,162.060 378.725 C 162.644 378.106,163.284 377.600,163.482 377.600 C 164.440 377.600,175.466 366.659,177.590 363.600 C 178.125 362.830,178.853 361.930,179.209 361.600 C 179.565 361.270,180.641 359.830,181.601 358.400 C 182.560 356.970,183.492 355.740,183.672 355.667 C 183.853 355.593,184.000 355.312,184.000 355.042 C 184.000 354.772,184.315 354.202,184.700 353.775 C 185.085 353.349,185.670 352.460,185.999 351.800 C 186.329 351.140,186.726 350.504,186.881 350.388 C 187.373 350.018,191.600 341.268,191.600 340.620 C 191.600 340.279,191.780 340.000,192.000 340.000 C 192.220 340.000,192.400 339.764,192.400 339.475 C 192.400 339.186,192.760 338.205,193.200 337.294 C 193.640 336.384,194.000 335.180,194.000 334.619 C 194.000 334.059,194.180 333.600,194.400 333.600 C 194.620 333.600,194.800 333.150,194.800 332.600 C 194.800 332.050,194.980 331.600,195.200 331.600 C 195.420 331.600,195.600 331.161,195.600 330.624 C 195.600 330.087,195.780 329.536,196.000 329.400 C 196.220 329.264,196.400 328.749,196.400 328.256 C 196.400 327.763,196.570 327.189,196.779 326.980 C 196.987 326.771,197.203 325.823,197.258 324.874 C 197.314 323.925,197.504 323.060,197.680 322.951 C 197.856 322.842,198.000 322.054,198.000 321.200 C 198.000 320.346,198.180 319.536,198.400 319.400 C 198.620 319.264,198.800 318.389,198.800 317.456 C 198.800 316.523,199.023 315.537,199.295 315.265 C 200.006 314.554,199.999 284.333,199.288 284.096 C 199.004 284.001,198.800 283.206,198.800 282.190 C 198.800 281.232,198.620 280.336,198.400 280.200 C 198.180 280.064,198.000 279.153,198.000 278.176 C 198.000 277.199,197.812 276.400,197.582 276.400 C 197.353 276.400,197.194 276.175,197.230 275.900 C 197.421 274.426,197.155 272.381,196.800 272.600 C 196.562 272.747,196.400 272.271,196.400 271.424 C 196.400 270.641,196.220 270.000,196.000 270.000 C 195.780 270.000,195.600 269.561,195.600 269.024 C 195.600 268.487,195.420 267.936,195.200 267.800 C 194.980 267.664,194.800 267.113,194.800 266.576 C 194.800 266.039,194.620 265.600,194.400 265.600 C 194.180 265.600,194.000 265.141,194.000 264.581 C 194.000 264.020,193.640 262.816,193.200 261.906 C 192.760 260.995,192.400 260.014,192.400 259.725 C 192.400 259.436,192.220 259.200,192.000 259.200 C 191.780 259.200,191.600 258.927,191.600 258.593 C 191.600 257.792,186.829 248.427,185.999 247.600 C 185.889 247.490,185.544 246.905,185.232 246.300 C 184.920 245.695,184.515 245.200,184.332 245.200 C 184.150 245.200,184.000 244.975,184.000 244.700 C 183.999 244.425,183.549 243.677,183.000 243.038 C 182.450 242.399,182.000 241.736,182.000 241.566 C 182.000 241.396,181.769 241.019,181.487 240.729 C 181.205 240.438,180.537 239.570,180.002 238.800 C 179.468 238.030,178.529 236.923,177.915 236.340 C 177.302 235.756,176.800 235.080,176.800 234.838 C 176.800 234.276,165.849 223.200,165.295 223.200 C 165.067 223.200,164.002 222.345,162.928 221.300 C 161.854 220.255,160.486 219.145,159.888 218.832 C 159.289 218.520,158.800 218.115,158.800 217.932 C 158.800 217.750,158.530 217.600,158.200 217.600 C 157.870 217.600,157.600 217.420,157.600 217.200 C 157.600 216.980,157.422 216.800,157.205 216.800 C 156.987 216.800,156.442 216.485,155.994 216.100 C 155.172 215.394,152.964 214.001,151.300 213.138 C 150.805 212.882,150.400 212.520,150.400 212.336 C 150.400 212.151,150.055 212.000,149.633 212.000 C 149.212 212.000,148.807 211.865,148.733 211.700 C 148.605 211.412,145.079 209.616,140.367 207.439 C 139.139 206.871,137.564 206.293,136.867 206.153 C 136.170 206.014,135.600 205.743,135.600 205.550 C 135.600 205.357,135.150 205.200,134.600 205.200 C 134.050 205.200,133.600 205.020,133.600 204.800 C 133.600 204.580,133.186 204.400,132.680 204.400 C 132.174 204.400,131.589 204.251,131.380 204.070 C 130.753 203.524,124.933 202.000,123.477 202.000 C 122.911 202.000,122.336 201.820,122.200 201.600 C 122.064 201.380,121.344 201.200,120.600 201.200 C 119.856 201.200,119.136 201.020,119.000 200.800 C 118.864 200.580,117.953 200.400,116.976 200.400 C 115.999 200.400,115.200 200.248,115.200 200.063 C 115.200 199.878,113.998 199.687,112.530 199.640 C 111.061 199.592,109.576 199.414,109.230 199.245 C 108.206 198.743,102.122 198.679,101.820 199.167 C 101.476 199.725,99.328 199.731,98.984 199.174 C 98.706 198.725,90.400 198.735,90.400 199.184 " stroke="none" fill="#fca304" fill-rule="evenodd"></path><path id="path2" d="M399.187 223.100 C 399.178 225.542,398.997 226.835,398.587 227.376 C 398.208 227.877,398.000 229.091,398.000 230.796 C 398.000 232.250,397.837 233.611,397.639 233.820 C 397.440 234.029,397.170 235.055,397.039 236.100 C 396.907 237.145,396.693 238.855,396.561 239.900 C 396.430 240.945,396.160 241.971,395.961 242.180 C 395.763 242.389,395.594 243.379,395.587 244.380 C 395.580 245.381,395.310 246.549,394.987 246.976 C 394.664 247.404,394.400 248.338,394.400 249.053 C 394.400 249.768,394.220 250.464,394.000 250.600 C 393.780 250.736,393.600 251.546,393.600 252.400 C 393.600 253.254,393.420 254.064,393.200 254.200 C 392.980 254.336,392.800 254.876,392.800 255.400 C 392.800 255.924,392.620 256.464,392.400 256.600 C 392.180 256.736,392.000 257.546,392.000 258.400 C 392.000 259.254,391.820 260.064,391.600 260.200 C 391.380 260.336,391.194 260.842,391.187 261.324 C 391.180 261.806,390.910 262.549,390.587 262.976 C 390.264 263.404,390.000 264.073,390.000 264.464 C 390.000 264.856,389.640 265.817,389.200 266.600 C 388.760 267.383,388.400 268.368,388.400 268.789 C 388.400 269.209,388.220 269.664,388.000 269.800 C 387.780 269.936,387.600 270.480,387.600 271.009 C 387.600 271.539,387.150 272.778,386.600 273.763 C 386.050 274.748,385.600 275.753,385.600 275.996 C 385.600 276.240,385.240 277.184,384.800 278.094 C 384.360 279.005,384.000 279.927,384.000 280.142 C 384.000 280.656,375.792 296.952,374.837 298.335 C 373.807 299.826,372.627 301.826,371.247 304.424 C 370.597 305.647,369.781 306.884,369.433 307.173 C 369.085 307.462,368.800 307.887,368.800 308.117 C 368.800 308.348,368.501 308.867,368.136 309.271 C 367.770 309.675,367.275 310.339,367.036 310.747 C 365.554 313.267,363.216 316.700,362.100 317.992 C 361.385 318.820,360.800 319.633,360.800 319.800 C 360.800 320.114,359.411 321.843,356.500 325.151 C 355.565 326.214,354.800 327.249,354.800 327.451 C 354.800 327.653,353.347 329.255,351.571 331.009 C 349.795 332.764,348.063 334.740,347.721 335.400 C 346.996 336.802,336.663 347.200,335.995 347.200 C 335.745 347.200,334.027 348.595,332.175 350.300 C 327.065 355.006,324.959 356.800,324.544 356.800 C 324.336 356.800,323.372 357.610,322.400 358.600 C 321.428 359.590,320.429 360.400,320.179 360.400 C 319.929 360.400,319.402 360.755,319.009 361.190 C 318.616 361.624,317.927 362.096,317.478 362.239 C 317.029 362.381,316.288 362.853,315.831 363.288 C 314.818 364.251,310.056 367.503,308.051 368.600 C 307.247 369.040,306.052 369.766,305.395 370.214 C 304.738 370.662,303.660 371.285,303.000 371.597 C 302.340 371.910,301.468 372.443,301.062 372.783 C 300.255 373.457,294.122 376.808,290.000 378.825 C 282.052 382.716,278.376 384.400,277.833 384.400 C 277.498 384.400,276.583 384.760,275.800 385.200 C 275.017 385.640,274.091 386.000,273.742 386.000 C 273.393 386.000,272.274 386.427,271.254 386.950 C 270.234 387.472,268.050 388.301,266.400 388.791 C 264.750 389.281,263.087 389.844,262.705 390.041 C 262.323 390.238,261.693 390.406,261.305 390.413 C 260.917 390.420,260.251 390.690,259.824 391.013 C 259.396 391.336,258.539 391.600,257.918 391.600 C 257.297 391.600,256.477 391.758,256.095 391.951 C 254.849 392.580,252.566 393.200,251.495 393.200 C 250.919 393.200,250.336 393.380,250.200 393.600 C 250.064 393.820,249.368 394.000,248.653 394.000 C 247.938 394.000,247.004 394.264,246.576 394.587 C 246.149 394.910,244.956 395.180,243.924 395.187 C 242.892 395.194,241.936 395.380,241.800 395.600 C 241.664 395.820,240.699 396.000,239.656 396.000 C 238.613 396.000,237.589 396.164,237.380 396.365 C 237.171 396.565,236.010 396.831,234.800 396.954 C 233.590 397.078,231.160 397.373,229.400 397.610 C 227.640 397.848,224.714 398.136,222.898 398.251 C 220.177 398.422,219.524 398.594,219.184 399.229 C 218.778 399.989,220.050 400.000,309.386 400.000 L 400.000 400.000 400.000 309.800 C 400.000 249.933,399.865 219.600,399.600 219.600 C 399.365 219.600,399.195 221.042,399.187 223.100 " stroke="none" fill="#1cbc74" fill-rule="evenodd"></path><path id="path3" d="M200.199 0.796 C 200.338 1.234,201.550 2.629,202.893 3.896 C 207.142 7.905,215.247 15.935,253.409 53.942 C 325.687 125.927,399.285 199.002,399.640 199.133 C 399.853 199.212,400.000 158.481,400.000 99.633 L 400.000 0.000 299.973 0.000 C 200.285 0.000,199.947 0.003,200.199 0.796 M199.270 4.036 C 198.979 4.502,198.934 4.764,199.170 4.618 C 199.476 4.429,199.600 32.579,199.600 102.176 L 199.600 200.000 299.900 199.901 L 400.200 199.802 300.101 199.700 L 200.002 199.598 199.901 101.393 C 199.817 19.718,199.711 3.331,199.270 4.036 M29.200 60.050 C 29.200 60.398,30.437 62.800,30.617 62.800 C 30.704 62.800,30.661 62.485,30.521 62.100 C 30.233 61.306,29.200 59.703,29.200 60.050 M78.400 158.687 C 78.400 158.943,78.580 159.264,78.800 159.400 C 79.020 159.536,79.200 159.997,79.200 160.424 C 79.200 160.851,79.374 161.200,79.587 161.200 C 80.028 161.200,79.723 160.178,78.934 159.011 C 78.640 158.577,78.400 158.431,78.400 158.687 M121.267 159.980 C 121.033 160.651,120.927 161.200,121.031 161.200 C 121.301 161.200,122.056 159.122,121.857 158.924 C 121.767 158.833,121.501 159.308,121.267 159.980 " stroke="none" fill="#b41424" fill-rule="evenodd"></path><path id="path4" d="M0.267 0.267 C -0.168 0.701,-0.037 2.203,0.480 2.720 C 0.744 2.984,0.806 3.200,0.619 3.200 C 0.431 3.200,0.665 3.536,1.139 3.947 C 1.613 4.358,2.039 5.168,2.087 5.747 C 2.135 6.326,2.315 6.800,2.487 6.800 C 2.659 6.800,2.800 7.151,2.800 7.580 C 2.800 8.009,3.025 8.504,3.300 8.680 C 3.575 8.856,4.158 9.720,4.596 10.600 C 5.034 11.480,5.497 12.290,5.625 12.400 C 5.915 12.649,6.315 13.711,6.249 14.058 C 6.222 14.200,6.543 14.695,6.962 15.158 C 7.479 15.730,7.556 16.000,7.201 16.000 C 6.903 16.000,7.075 16.345,7.600 16.800 C 8.107 17.240,8.377 17.600,8.199 17.600 C 8.021 17.600,8.174 17.930,8.539 18.332 C 8.903 18.735,9.067 19.200,8.902 19.365 C 8.736 19.530,8.934 19.909,9.341 20.206 C 9.747 20.503,9.961 20.939,9.816 21.173 C 9.671 21.408,9.754 21.600,10.000 21.600 C 10.246 21.600,10.336 21.780,10.200 22.000 C 10.064 22.220,10.151 22.400,10.394 22.400 C 10.637 22.400,10.806 22.625,10.770 22.900 C 10.632 23.960,10.818 24.436,11.262 24.162 C 11.567 23.973,11.614 24.054,11.401 24.399 C 11.197 24.728,11.351 25.121,11.815 25.461 C 12.221 25.757,12.401 26.000,12.214 26.000 C 12.028 26.000,12.192 26.349,12.577 26.775 C 12.971 27.210,13.147 27.763,12.977 28.037 C 12.792 28.336,12.843 28.420,13.109 28.256 C 13.517 28.004,14.258 29.427,14.076 30.111 C 14.030 30.282,14.264 30.527,14.596 30.654 C 14.928 30.781,15.200 31.057,15.200 31.266 C 15.200 31.476,14.975 31.512,14.700 31.347 C 14.189 31.040,15.113 32.388,15.720 32.836 C 15.896 32.966,16.068 33.448,16.103 33.908 C 16.138 34.368,16.309 34.656,16.483 34.549 C 16.764 34.375,16.977 35.281,16.847 36.100 C 16.821 36.265,16.980 36.400,17.200 36.400 C 17.420 36.400,17.600 36.771,17.600 37.224 C 17.600 37.677,17.760 37.949,17.955 37.828 C 18.270 37.633,18.935 38.986,18.856 39.662 C 18.839 39.806,19.090 40.143,19.413 40.411 C 19.736 40.679,20.000 41.146,20.000 41.449 C 20.000 41.752,20.180 42.000,20.400 42.000 C 20.620 42.000,20.800 42.450,20.800 43.000 C 20.800 43.550,20.980 44.000,21.200 44.000 C 21.420 44.000,21.600 44.326,21.600 44.725 C 21.600 45.123,21.967 45.843,22.416 46.325 C 22.864 46.806,23.032 47.200,22.788 47.200 C 22.347 47.200,23.887 49.680,24.486 49.933 C 24.658 50.007,24.800 50.412,24.800 50.833 C 24.800 51.255,25.010 51.600,25.267 51.600 C 25.523 51.600,25.613 51.720,25.466 51.868 C 25.319 52.015,25.514 52.496,25.899 52.936 C 26.285 53.377,26.357 53.595,26.060 53.420 C 25.623 53.164,25.607 53.265,25.974 53.952 C 26.224 54.418,26.602 54.800,26.814 54.800 C 27.026 54.800,27.200 54.991,27.200 55.224 C 27.200 55.457,27.002 55.525,26.760 55.375 C 26.451 55.184,26.455 55.356,26.774 55.952 C 27.024 56.418,27.357 56.801,27.514 56.803 C 27.971 56.808,28.803 58.872,28.527 59.318 C 28.389 59.541,28.465 59.607,28.696 59.464 C 29.158 59.178,29.726 60.272,29.395 60.808 C 29.280 60.993,29.398 61.275,29.655 61.434 C 29.972 61.630,30.020 61.541,29.803 61.162 C 29.575 60.761,29.611 60.717,29.930 61.009 C 30.176 61.233,30.432 61.776,30.499 62.214 C 30.566 62.652,31.021 63.778,31.510 64.717 C 32.000 65.656,32.400 66.674,32.400 66.979 C 32.400 67.284,32.566 67.593,32.770 67.667 C 32.973 67.740,33.198 68.070,33.270 68.400 C 33.341 68.730,33.547 69.108,33.727 69.240 C 33.906 69.372,34.094 69.759,34.144 70.100 C 34.194 70.440,34.440 70.967,34.691 71.269 C 35.397 72.119,37.587 76.400,37.317 76.400 C 37.184 76.400,37.374 76.730,37.739 77.132 C 38.103 77.535,38.267 78.000,38.102 78.165 C 37.936 78.330,38.150 78.721,38.577 79.033 C 39.004 79.345,39.216 79.600,39.049 79.600 C 38.882 79.600,39.118 80.123,39.573 80.762 C 40.028 81.401,40.400 82.221,40.400 82.585 C 40.400 82.949,40.580 83.136,40.800 83.000 C 41.020 82.864,41.200 83.099,41.200 83.522 C 41.200 83.946,41.573 84.766,42.029 85.346 C 42.603 86.076,42.695 86.404,42.329 86.413 C 42.001 86.422,42.118 86.693,42.636 87.126 C 43.096 87.510,43.429 88.122,43.376 88.485 C 43.322 88.848,43.550 89.249,43.881 89.376 C 44.212 89.503,44.386 89.860,44.267 90.170 C 44.148 90.480,44.306 90.832,44.619 90.952 C 44.936 91.073,45.082 91.441,44.950 91.785 C 44.796 92.187,44.946 92.400,45.384 92.400 C 45.848 92.400,45.983 92.622,45.825 93.122 C 45.688 93.553,45.926 94.199,46.413 94.722 C 46.863 95.205,47.112 95.600,46.967 95.600 C 46.821 95.600,46.923 95.866,47.192 96.191 C 48.032 97.202,50.041 101.293,49.811 101.522 C 49.691 101.642,49.939 102.114,50.362 102.570 C 50.785 103.027,51.191 103.760,51.265 104.200 C 51.339 104.640,51.500 105.090,51.621 105.200 C 52.175 105.701,53.598 108.353,53.711 109.096 C 53.781 109.550,54.052 110.181,54.315 110.498 C 54.578 110.814,54.704 111.163,54.594 111.273 C 54.485 111.382,54.756 111.798,55.198 112.198 C 55.639 112.597,56.000 113.174,56.000 113.479 C 56.000 113.784,56.360 114.420,56.800 114.892 C 57.240 115.364,57.600 116.077,57.600 116.475 C 57.600 116.874,57.825 117.203,58.100 117.206 C 58.433 117.210,58.400 117.342,58.000 117.600 C 57.670 117.813,57.582 117.991,57.804 117.994 C 58.026 117.997,58.444 118.379,58.733 118.842 C 59.065 119.373,59.090 119.579,58.800 119.400 C 58.510 119.221,58.535 119.427,58.867 119.958 C 59.156 120.421,59.523 120.800,59.684 120.800 C 59.844 120.800,59.878 121.052,59.760 121.360 C 59.642 121.667,59.766 122.055,60.035 122.221 C 60.368 122.427,60.421 122.357,60.200 122.000 C 59.978 121.640,60.032 121.573,60.373 121.783 C 60.646 121.952,60.781 122.430,60.672 122.846 C 60.564 123.261,60.638 123.500,60.837 123.377 C 61.037 123.254,61.227 123.388,61.261 123.676 C 61.294 123.964,61.364 124.380,61.415 124.600 C 61.466 124.820,61.528 125.236,61.554 125.524 C 61.579 125.812,61.761 125.948,61.958 125.826 C 62.155 125.704,62.423 125.883,62.554 126.223 C 62.713 126.639,62.629 126.748,62.295 126.556 C 62.023 126.399,62.183 126.705,62.650 127.235 C 63.792 128.531,64.400 129.769,64.400 130.797 C 64.400 131.265,64.580 131.536,64.800 131.400 C 65.168 131.173,65.238 131.330,65.366 132.664 C 65.391 132.919,65.751 133.504,66.167 133.964 C 66.584 134.424,66.778 134.800,66.600 134.800 C 66.422 134.800,66.584 135.140,66.959 135.555 C 67.335 135.971,67.671 136.683,67.705 137.138 C 67.740 137.593,67.845 137.888,67.940 137.794 C 68.241 137.493,69.505 140.178,69.307 140.697 C 69.202 140.970,69.394 141.300,69.733 141.430 C 70.072 141.560,70.259 141.903,70.148 142.192 C 70.037 142.481,70.328 142.984,70.794 143.311 C 71.261 143.638,71.671 144.279,71.705 144.735 C 71.740 145.192,71.849 145.484,71.949 145.385 C 72.048 145.285,72.464 145.950,72.872 146.861 C 73.280 147.773,73.529 148.605,73.424 148.709 C 73.320 148.814,73.631 149.231,74.117 149.636 C 74.762 150.174,74.838 150.379,74.400 150.393 C 74.038 150.405,73.962 150.529,74.209 150.706 C 74.734 151.083,76.183 153.276,76.254 153.800 C 76.283 154.020,76.328 154.436,76.354 154.724 C 76.379 155.012,76.563 155.146,76.763 155.023 C 76.962 154.900,77.031 155.159,76.916 155.599 C 76.799 156.047,76.904 156.400,77.153 156.400 C 77.399 156.400,77.564 156.535,77.521 156.700 C 77.340 157.385,78.087 158.793,78.497 158.540 C 78.781 158.364,78.843 158.510,78.673 158.955 C 78.512 159.372,78.568 159.543,78.815 159.391 C 79.173 159.169,80.039 160.882,79.990 161.714 C 79.980 161.887,80.248 162.305,80.586 162.643 C 80.924 162.981,81.200 163.582,81.200 163.980 C 81.200 164.377,81.468 164.924,81.796 165.196 C 82.123 165.468,82.305 165.830,82.200 166.000 C 82.095 166.170,82.277 166.532,82.604 166.804 C 82.932 167.076,83.200 167.546,83.200 167.849 C 83.200 168.152,83.380 168.400,83.600 168.400 C 83.820 168.400,84.000 168.850,84.000 169.400 C 84.000 169.950,84.159 170.400,84.353 170.400 C 84.548 170.400,84.838 170.805,85.000 171.300 C 85.161 171.795,85.339 172.335,85.396 172.500 C 85.453 172.665,85.523 172.991,85.550 173.224 C 85.577 173.457,85.808 173.519,86.062 173.362 C 86.354 173.181,86.415 173.252,86.227 173.556 C 86.064 173.819,86.145 174.293,86.407 174.608 C 87.337 175.729,89.204 179.669,88.979 180.035 C 88.853 180.239,89.030 180.513,89.372 180.645 C 89.715 180.776,89.897 181.043,89.777 181.237 C 89.657 181.431,89.928 181.986,90.380 182.470 C 90.831 182.955,91.200 183.587,91.200 183.875 C 91.200 184.164,91.359 184.400,91.553 184.400 C 91.914 184.400,92.534 185.920,92.428 186.545 C 92.396 186.735,92.663 187.104,93.021 187.366 C 93.379 187.627,93.634 188.102,93.588 188.421 C 93.447 189.403,93.587 190.147,93.861 189.873 C 94.234 189.499,95.247 191.600,94.936 192.103 C 94.793 192.335,94.865 192.407,95.096 192.264 C 95.552 191.983,96.129 193.068,95.804 193.594 C 95.694 193.771,95.892 194.027,96.244 194.161 C 96.617 194.305,96.785 194.662,96.648 195.019 C 96.516 195.364,96.670 195.729,97.004 195.857 C 97.329 195.982,97.496 196.245,97.374 196.442 C 97.252 196.639,97.373 196.800,97.643 196.800 C 97.913 196.800,98.019 196.915,97.878 197.055 C 97.738 197.195,97.991 197.825,98.439 198.455 C 99.349 199.733,101.445 200.069,101.854 199.002 C 101.981 198.674,102.290 198.522,102.542 198.666 C 102.794 198.810,102.864 198.779,102.699 198.596 C 102.533 198.413,102.675 197.839,103.015 197.321 C 103.355 196.802,103.525 196.202,103.393 195.989 C 103.261 195.775,103.329 195.600,103.545 195.600 C 103.760 195.600,104.055 195.058,104.201 194.397 C 104.357 193.684,104.640 193.301,104.894 193.458 C 105.130 193.604,105.219 193.555,105.092 193.348 C 104.964 193.142,105.290 192.124,105.816 191.087 C 106.342 190.049,106.644 189.194,106.486 189.187 C 106.329 189.180,106.549 188.910,106.976 188.587 C 107.404 188.264,107.584 187.994,107.376 187.987 C 107.169 187.980,107.349 187.710,107.776 187.387 C 108.204 187.064,108.425 186.800,108.270 186.800 C 108.114 186.800,108.443 185.900,109.000 184.800 C 109.557 183.700,109.901 182.800,109.762 182.800 C 109.624 182.800,109.936 182.426,110.456 181.970 C 110.975 181.513,111.175 181.253,110.900 181.393 C 110.625 181.533,110.400 181.457,110.400 181.224 C 110.400 180.991,110.580 180.800,110.800 180.800 C 111.020 180.800,111.200 180.440,111.200 180.000 C 111.200 179.560,111.380 179.200,111.600 179.200 C 111.820 179.200,112.000 178.840,112.000 178.400 C 112.000 177.960,112.146 177.600,112.325 177.600 C 112.504 177.600,112.901 176.961,113.208 176.181 C 113.514 175.400,113.995 174.570,114.278 174.335 C 114.560 174.101,114.693 173.750,114.572 173.555 C 114.451 173.360,114.543 173.200,114.776 173.200 C 115.009 173.200,115.200 172.829,115.200 172.376 C 115.200 171.923,115.338 171.638,115.507 171.742 C 115.675 171.846,116.018 171.497,116.269 170.965 C 116.520 170.434,116.566 170.098,116.370 170.218 C 116.175 170.339,116.327 169.844,116.708 169.119 C 117.089 168.393,117.547 167.736,117.726 167.658 C 118.059 167.513,118.834 165.845,119.035 164.840 C 119.096 164.532,119.294 164.172,119.473 164.040 C 119.653 163.908,119.850 163.530,119.911 163.200 C 120.128 162.032,120.926 160.831,121.322 161.075 C 121.550 161.217,121.600 161.123,121.436 160.858 C 121.028 160.198,121.567 158.732,122.097 159.060 C 122.375 159.232,122.446 159.098,122.292 158.695 C 122.157 158.345,122.296 157.852,122.600 157.600 C 122.904 157.348,123.054 156.885,122.933 156.571 C 122.813 156.257,122.896 156.000,123.118 156.000 C 123.340 156.000,123.710 155.460,123.940 154.800 C 124.170 154.140,124.548 153.600,124.779 153.600 C 125.011 153.600,125.200 153.139,125.200 152.576 C 125.200 151.996,125.373 151.660,125.600 151.800 C 125.828 151.941,126.000 151.595,126.000 150.995 C 126.000 150.416,126.272 149.671,126.604 149.339 C 126.936 149.007,127.105 148.570,126.980 148.368 C 126.855 148.165,126.898 147.999,127.076 147.997 C 127.254 147.995,127.598 147.590,127.840 147.097 C 128.968 144.801,130.231 142.577,130.534 142.355 C 130.718 142.221,130.853 141.996,130.834 141.855 C 130.720 141.001,130.837 140.304,131.059 140.525 C 131.336 140.802,133.200 137.055,133.200 136.222 C 133.200 135.948,133.560 135.398,134.000 135.000 C 134.440 134.602,134.800 133.944,134.800 133.538 C 134.800 133.132,134.980 132.800,135.200 132.800 C 135.420 132.800,135.569 132.665,135.530 132.500 C 135.457 132.186,136.432 129.946,136.792 129.600 C 136.906 129.490,137.000 129.130,137.000 128.800 C 137.000 128.470,137.238 128.249,137.530 128.310 C 137.821 128.370,137.949 128.240,137.813 128.021 C 137.678 127.802,137.889 127.130,138.283 126.529 C 138.678 125.927,138.955 125.382,138.900 125.318 C 138.613 124.980,138.856 124.387,139.195 124.597 C 139.414 124.733,139.493 124.588,139.372 124.272 C 139.252 123.959,139.446 123.591,139.802 123.454 C 140.159 123.318,140.343 123.031,140.211 122.817 C 140.079 122.604,140.337 122.063,140.785 121.615 C 141.233 121.167,141.600 120.339,141.600 119.776 C 141.600 119.179,141.771 118.858,142.010 119.006 C 142.235 119.145,142.394 119.111,142.363 118.930 C 142.208 118.038,142.474 117.272,143.216 116.475 C 143.664 115.994,143.934 115.600,143.815 115.600 C 143.696 115.600,143.952 114.941,144.383 114.136 C 144.815 113.331,145.075 112.521,144.960 112.336 C 144.846 112.151,144.943 112.000,145.176 112.000 C 145.409 112.000,145.600 111.719,145.600 111.376 C 145.600 111.033,145.742 110.840,145.915 110.948 C 146.088 111.055,146.270 110.660,146.319 110.071 C 146.367 109.482,146.585 108.940,146.803 108.867 C 147.022 108.793,147.200 108.468,147.200 108.143 C 147.200 107.818,147.343 107.641,147.517 107.749 C 147.691 107.856,147.862 107.574,147.896 107.120 C 147.930 106.667,148.307 105.915,148.733 105.448 C 149.159 104.982,149.640 104.150,149.801 103.600 C 149.963 103.050,150.388 102.254,150.747 101.831 C 151.225 101.269,151.245 101.154,150.821 101.403 C 150.494 101.596,150.624 101.209,151.121 100.510 C 151.605 99.832,152.000 99.069,152.000 98.815 C 152.000 98.561,152.184 98.467,152.410 98.606 C 152.635 98.745,152.780 98.711,152.731 98.530 C 152.486 97.626,155.037 92.000,155.690 92.000 C 155.908 92.000,155.982 91.730,155.855 91.400 C 155.729 91.070,155.768 90.800,155.942 90.800 C 156.314 90.800,158.198 87.226,158.204 86.508 C 158.207 86.237,158.520 85.652,158.900 85.208 C 159.363 84.668,159.428 84.398,159.096 84.394 C 158.759 84.390,158.739 84.294,159.032 84.094 C 159.270 83.932,159.719 83.215,160.030 82.500 C 160.341 81.785,160.731 81.200,160.898 81.200 C 161.064 81.200,161.203 80.705,161.206 80.100 C 161.211 79.243,161.298 79.132,161.600 79.600 C 161.894 80.055,161.989 79.886,161.994 78.900 C 161.997 78.185,162.180 77.600,162.400 77.600 C 162.620 77.600,162.800 77.364,162.800 77.075 C 162.800 76.787,163.160 76.164,163.600 75.692 C 164.040 75.220,164.400 74.455,164.400 73.993 C 164.400 73.531,164.548 73.244,164.729 73.356 C 164.911 73.468,165.279 72.702,165.548 71.653 C 165.816 70.605,166.343 69.456,166.718 69.101 C 167.988 67.900,168.400 67.236,168.400 66.393 C 168.400 65.860,168.569 65.657,168.862 65.838 C 169.156 66.020,169.215 65.947,169.023 65.637 C 168.855 65.366,169.013 64.828,169.378 64.425 C 169.738 64.026,170.005 63.543,169.969 63.350 C 169.819 62.530,170.029 61.971,170.400 62.200 C 170.620 62.336,170.800 62.077,170.800 61.624 C 170.800 61.171,170.974 60.800,171.187 60.800 C 171.401 60.800,171.472 60.532,171.346 60.203 C 171.213 59.858,171.397 59.499,171.781 59.352 C 172.147 59.212,172.356 58.863,172.247 58.578 C 172.137 58.292,172.307 57.843,172.624 57.580 C 172.941 57.317,173.200 56.764,173.200 56.351 C 173.200 55.938,173.399 55.600,173.643 55.600 C 173.886 55.600,173.990 55.350,173.872 55.044 C 173.755 54.738,174.006 54.116,174.429 53.661 C 174.853 53.206,175.200 52.545,175.200 52.193 C 175.200 51.841,175.344 51.642,175.520 51.751 C 175.696 51.860,176.082 51.105,176.377 50.074 C 176.672 49.043,177.186 47.885,177.519 47.500 C 177.852 47.115,177.961 46.797,177.762 46.794 C 177.563 46.791,177.580 46.656,177.800 46.494 C 178.298 46.128,179.574 44.037,179.871 43.100 C 179.993 42.715,180.252 42.400,180.447 42.400 C 180.641 42.400,180.800 41.961,180.800 41.424 C 180.800 40.887,180.980 40.336,181.200 40.200 C 181.420 40.064,181.600 39.603,181.600 39.176 C 181.600 38.749,181.758 38.400,181.951 38.400 C 182.145 38.400,182.534 37.815,182.816 37.100 C 183.099 36.385,183.705 35.366,184.165 34.835 C 184.624 34.305,184.792 33.990,184.537 34.136 C 184.187 34.337,184.187 34.158,184.537 33.404 C 184.792 32.855,185.135 32.405,185.300 32.403 C 185.465 32.401,185.600 32.068,185.600 31.662 C 185.600 31.256,185.953 30.605,186.384 30.214 C 186.815 29.824,187.154 29.391,187.137 29.252 C 187.023 28.344,187.261 27.590,187.595 27.797 C 187.822 27.937,187.889 27.777,187.754 27.424 C 187.614 27.060,187.781 26.706,188.158 26.561 C 188.511 26.425,188.800 25.873,188.800 25.334 C 188.800 24.694,188.961 24.452,189.262 24.638 C 189.521 24.799,189.616 24.749,189.478 24.526 C 189.220 24.108,190.624 21.176,191.284 20.755 C 191.496 20.621,191.653 20.396,191.634 20.255 C 191.507 19.306,191.658 18.789,192.000 19.000 C 192.220 19.136,192.400 18.877,192.400 18.424 C 192.400 17.971,192.580 17.600,192.800 17.600 C 193.020 17.600,193.200 17.171,193.200 16.646 C 193.200 15.382,194.241 13.360,194.526 14.072 C 194.642 14.362,194.751 14.015,194.768 13.300 C 194.786 12.585,194.980 12.000,195.200 12.000 C 195.420 12.000,195.600 11.730,195.600 11.400 C 195.600 11.070,195.751 10.800,195.936 10.800 C 196.121 10.800,196.518 10.035,196.819 9.100 C 197.120 8.165,197.464 7.310,197.583 7.200 C 198.189 6.642,199.641 4.327,199.225 4.585 C 198.884 4.795,198.898 4.632,199.270 4.036 C 199.711 3.331,199.817 19.718,199.901 101.394 L 200.002 199.600 299.919 199.600 L 399.837 199.600 373.819 173.691 C 359.508 159.440,335.020 135.085,319.400 119.567 C 303.780 104.049,274.170 74.597,253.600 54.118 C 215.114 15.803,207.103 7.869,202.893 3.896 C 201.550 2.629,200.338 1.234,200.199 0.796 C 199.943 -0.008,1.068 -0.535,0.267 0.267 " stroke="none" fill="#cc2c24" fill-rule="evenodd"></path></g></svg>