<?xml version="1.0" standalone="no"?>
<!DOCTYPE svg PUBLIC "-//W3C//DTD SVG 20010904//EN"
 "http://www.w3.org/TR/2001/REC-SVG-20010904/DTD/svg10.dtd">
<svg version="1.0" xmlns="http://www.w3.org/2000/svg"
 width="256.000000pt" height="256.000000pt" viewBox="0 0 256.000000 256.000000"
 preserveAspectRatio="xMidYMid meet">

<g transform="translate(0.000000,256.000000) scale(0.100000,-0.100000)"
fill="#000000" stroke="none">
<path d="M377 2022 c-15 -17 -17 -71 -17 -568 0 -302 4 -554 8 -560 22 -33 48
-34 774 -34 l723 1 -66 22 c-85 29 -145 70 -172 119 l-22 38 -364 0 c-246 0
-376 4 -402 12 -72 21 -74 27 -77 348 -2 187 0 297 7 320 14 45 54 90 81 90
11 0 23 6 26 13 3 10 33 14 107 16 82 2 100 0 90 -10 -7 -7 -13 -20 -13 -29 0
-10 9 -4 24 15 35 43 43 24 10 -24 -37 -57 -23 -63 16 -7 27 40 34 45 51 36
10 -6 26 -21 34 -34 39 -59 118 -57 178 5 21 21 42 39 47 39 5 0 21 -20 36
-45 14 -25 30 -45 36 -45 10 0 9 2 -29 63 -16 26 -19 37 -10 37 8 0 20 -11 27
-25 7 -14 17 -25 22 -25 11 0 10 18 -2 25 -5 3 -10 11 -10 17 0 7 31 9 93 6
78 -3 100 -8 144 -32 67 -37 73 -56 73 -247 l0 -146 43 0 c116 0 169 -98 116
-217 -22 -51 -22 -91 1 -91 9 0 17 14 21 39 9 52 29 66 89 59 41 -5 49 -3 59
15 8 14 8 29 0 51 -9 26 -8 35 5 50 9 10 17 37 18 62 1 43 1 43 5 7 2 -21 8
-38 13 -38 4 0 9 -21 9 -47 1 -27 3 -70 4 -97 1 -40 -3 -52 -22 -67 -13 -11
-38 -19 -57 -19 l-34 0 0 -55 c0 -93 -34 -153 -105 -187 l-40 -19 121 3 c103
3 125 6 143 22 21 19 21 23 21 565 0 479 -2 549 -16 569 l-15 22 -893 0 c-852
0 -894 -1 -909 -18z m1780 -464 c-1 -62 -3 -12 -3 112 0 124 2 174 3 113 2
-62 2 -164 0 -225z m-912 302 c-3 -5 -1 -10 6 -10 10 0 10 -3 1 -12 -9 -9 -15
-9 -23 -1 -12 12 -4 33 12 33 6 0 7 -4 4 -10z m88 -21 c-17 -17 -36 -1 -20 16
7 8 16 10 22 4 5 -6 5 -13 -2 -20z m-926 -206 c-2 -21 -4 -4 -4 37 0 41 2 58
4 38 2 -21 2 -55 0 -75z m53 -254 c0 -186 -4 -289 -10 -289 -6 0 -10 105 -10
296 0 194 3 293 10 289 6 -4 10 -113 10 -296z m1660 185 c0 -36 -4 -64 -10
-64 -6 0 -10 30 -10 71 0 44 4 68 10 64 6 -3 10 -35 10 -71z m-1713 -406 c-1
-73 -3 -14 -3 132 0 146 2 205 3 133 2 -73 2 -193 0 -265z m3 -192 c0 -12 9
-32 20 -44 32 -34 72 -40 135 -18 13 5 12 2 -5 -8 -46 -28 -117 -16 -144 26
-20 32 -33 83 -17 74 6 -4 11 -17 11 -30z m90 20 c0 -3 -4 -8 -10 -11 -5 -3
-10 -1 -10 4 0 6 5 11 10 11 6 0 10 -2 10 -4z m25 -15 c-3 -6 4 -15 15 -21 13
-7 20 -7 20 -1 0 6 7 8 16 4 10 -4 12 -9 5 -16 -13 -13 -71 10 -71 29 0 8 5
14 11 14 5 0 8 -4 4 -9z"/>
<path d="M1665 1770 c-9 -15 4 -30 26 -30 12 0 19 7 19 20 0 21 -33 29 -45 10z"/>
<path d="M1512 1753 c14 -17 28 -16 28 1 0 8 -9 14 -19 13 -15 -1 -17 -4 -9
-14z"/>
<path d="M1587 1764 c-13 -13 -7 -24 14 -24 11 0 19 5 17 12 -5 14 -22 21 -31
12z"/>
<path d="M1317 1578 c-8 -13 -38 -101 -67 -196 -54 -173 -56 -204 -16 -189 17
7 129 347 124 379 -4 30 -24 33 -41 6z"/>
<path d="M1037 1465 c-65 -44 -97 -71 -97 -84 0 -13 29 -35 98 -75 108 -62
135 -69 130 -34 -2 16 -23 34 -67 60 -35 20 -68 41 -72 45 -5 5 23 32 66 62
41 28 75 55 75 60 0 8 -21 31 -30 31 -3 0 -49 -29 -103 -65z"/>
<path d="M1407 1523 c-20 -19 -1 -44 64 -87 81 -54 81 -51 -13 -106 -43 -24
-64 -43 -66 -58 -3 -16 2 -22 17 -22 20 0 206 104 217 121 9 15 -10 33 -106
98 -88 61 -101 67 -113 54z"/>
<path d="M707 696 c2 -23 1 -26 -5 -11 -6 18 -27 23 -54 15 -5 -1 -12 -3 -17
-4 -5 0 -13 -4 -17 -8 -11 -12 -26 -10 -19 2 3 6 -3 10 -14 10 -10 0 -22 6
-24 13 -4 9 -6 9 -6 -1 -1 -8 -9 -10 -26 -6 -15 4 -32 1 -40 -6 -12 -10 -15
-10 -15 0 0 8 -6 9 -17 5 -24 -10 -112 -12 -106 -2 2 4 -1 7 -6 7 -13 0 -14
-20 -1 -40 8 -13 71 -15 470 -15 297 0 461 4 464 10 3 6 5 4 5 -2 1 -9 24 -11
94 -7 50 3 155 6 231 7 118 2 139 4 141 18 2 8 -6 21 -17 28 -11 7 -17 8 -14
3 3 -5 -7 -12 -22 -14 -15 -3 -36 -9 -46 -13 -14 -6 -17 -5 -12 3 4 7 1 12 -8
12 -8 0 -20 8 -26 18 -11 16 -11 16 -6 0 6 -20 -20 -26 -26 -6 -3 7 -9 8 -19
2 -15 -9 -29 -11 -116 -17 -29 -2 -48 0 -42 4 6 3 1 9 -12 12 -13 4 -25 4 -28
2 -2 -3 1 -5 7 -5 7 0 12 -4 12 -9 0 -4 -12 -6 -26 -3 -21 4 -25 2 -19 -9 7
-11 6 -12 -6 -3 -8 6 -33 11 -57 11 -23 0 -45 3 -48 6 -4 4 -15 2 -25 -4 -23
-12 -112 8 -102 24 4 6 1 7 -7 2 -10 -6 -9 -11 5 -22 15 -10 15 -13 4 -13 -8
0 -20 5 -25 10 -7 7 -18 4 -34 -10 -27 -24 -34 -25 -27 -6 3 8 -1 17 -9 20 -8
3 -17 0 -20 -8 -3 -7 -11 -13 -19 -13 -8 0 -11 5 -8 10 4 6 0 8 -10 4 -10 -4
-17 -2 -17 5 0 7 -4 7 -13 -1 -24 -19 -61 -19 -75 0 -14 21 -42 26 -42 8 0 -8
-6 -7 -17 2 -9 8 -18 13 -20 12 -1 -2 -4 -3 -5 -2 -2 0 -12 2 -24 3 -17 2 -20
-3 -17 -28z"/>
<path d="M1748 717 c7 -7 10 -22 8 -33 -4 -20 0 -20 157 -18 89 2 194 3 232 4
39 0 76 4 83 9 21 13 -62 23 -93 11 -17 -7 -24 -7 -20 0 4 6 -5 10 -19 10 -14
0 -26 -4 -26 -10 0 -5 -8 -10 -17 -10 -15 0 -16 2 -3 10 13 8 12 10 -2 10 -10
0 -18 -4 -18 -10 0 -5 -12 -10 -26 -10 -14 0 -23 4 -20 9 4 5 -5 8 -20 6 -17
-2 -24 2 -20 11 3 8 0 11 -9 7 -8 -3 -13 -9 -10 -13 3 -4 -4 -10 -15 -13 -11
-3 -18 -2 -16 2 3 4 -9 13 -26 20 -25 12 -32 11 -39 0 -7 -12 -9 -12 -9 0 0 7
-6 11 -14 8 -8 -3 -17 -3 -20 1 -4 3 -16 7 -28 9 -16 3 -18 0 -10 -10z"/>
<path d="M2116 721 c-3 -5 1 -11 9 -14 9 -4 12 -1 8 9 -6 16 -10 17 -17 5z"/>
</g>
</svg>
