<svg width="202" height="28" viewBox="0 0 202 28" fill="none" xmlns="http://www.w3.org/2000/svg">
<path d="M136.744 21L140.968 10.936C141.171 10.456 141.4 10.1253 141.656 9.944C141.923 9.76267 142.307 9.672 142.808 9.672C143.288 9.672 143.661 9.768 143.928 9.96C144.205 10.1413 144.445 10.4667 144.648 10.936L148.872 21H146.648L145.496 18.168H140.104L138.968 21H136.744ZM142.488 12.104L140.648 16.664H144.952L143.128 12.104C143.011 11.7947 142.904 11.64 142.808 11.64C142.712 11.64 142.605 11.7947 142.488 12.104ZM151.841 21H149.729V9.8H151.841V21ZM159.927 21H157.815V11.48C157.815 10.36 158.359 9.8 159.447 9.8H165.095C166.098 9.8 166.812 10.0987 167.239 10.696C167.676 11.2827 167.895 12.1627 167.895 13.336C167.895 15.832 167.031 17.08 165.303 17.08H164.183V17.16L168.119 21H165.399L161.783 17.368C161.431 16.9947 161.255 16.68 161.255 16.424V16.168C161.255 15.9333 161.335 15.7467 161.495 15.608C161.666 15.4693 161.9 15.4 162.199 15.4H164.375C164.919 15.4 165.276 15.2347 165.447 14.904C165.628 14.5733 165.719 14.0507 165.719 13.336C165.719 12.6533 165.612 12.1733 165.399 11.896C165.196 11.6187 164.775 11.48 164.135 11.48H160.727C160.407 11.48 160.194 11.5333 160.087 11.64C159.98 11.7467 159.927 11.96 159.927 12.28V21ZM168.509 21L172.733 10.936C172.936 10.456 173.165 10.1253 173.421 9.944C173.688 9.76267 174.072 9.672 174.573 9.672C175.053 9.672 175.426 9.768 175.693 9.96C175.97 10.1413 176.21 10.4667 176.413 10.936L180.637 21H178.413L177.261 18.168H171.869L170.733 21H168.509ZM174.253 12.104L172.413 16.664H176.717L174.893 12.104C174.776 11.7947 174.669 11.64 174.573 11.64C174.477 11.64 174.37 11.7947 174.253 12.104ZM190.598 21H185.926C184.998 21 184.214 20.8667 183.574 20.6C182.934 20.3227 182.444 19.9227 182.102 19.4C181.761 18.8667 181.521 18.28 181.382 17.64C181.244 17 181.174 16.2533 181.174 15.4C181.174 14.5467 181.244 13.8 181.382 13.16C181.521 12.52 181.761 11.9387 182.102 11.416C182.444 10.8827 182.934 10.4827 183.574 10.216C184.214 9.93867 184.998 9.8 185.926 9.8H190.422V11.48H186.918C185.553 11.48 184.614 11.7573 184.102 12.312C183.601 12.856 183.35 13.8853 183.35 15.4C183.35 16.9147 183.601 17.9493 184.102 18.504C184.614 19.048 185.553 19.32 186.918 19.32H190.598V21ZM201.177 19.32V21H193.833C192.745 21 192.201 20.44 192.201 19.32V11.48C192.201 10.36 192.745 9.8 193.833 9.8H201.113V11.48H195.113C194.793 11.48 194.58 11.5333 194.473 11.64C194.367 11.7467 194.313 11.96 194.313 12.28V14.44H200.953V16.12H194.313V18.52C194.313 18.84 194.367 19.0533 194.473 19.16C194.58 19.2667 194.793 19.32 195.113 19.32H201.177Z" fill="#EA0029"/>
<path d="M29.1592 6.19727H27.0662C26.2326 6.19727 25.5586 6.87132 25.5586 7.70501V23.2614C25.5586 24.0951 26.2326 24.7692 27.0662 24.7692H29.1592C29.9928 24.7692 30.6668 24.0951 30.6668 23.2614V7.72275C30.6845 6.87132 29.9928 6.19727 29.1592 6.19727Z" fill="#EA0029"/>
<path d="M21.6212 6.19727C20.291 6.19727 19.1913 6.99549 18.6414 8.13073L13.0543 19.9799C12.9302 20.2637 12.6641 20.7249 12.4335 20.7249C12.2207 20.7249 11.9546 20.2637 11.8127 19.9799L6.22563 8.13073C5.67579 6.99549 4.57611 6.19727 3.24584 6.19727H0L8.85069 23.3501C9.71979 25.0352 11.529 24.9998 12.4513 24.9998C13.7283 24.9998 15.2182 24.9288 15.9986 23.3501L24.8493 6.19727H21.6212Z" fill="#EA0029"/>
<path d="M119.423 3.35931C119.423 2.52561 118.749 1.85156 117.915 1.85156H115.822C114.988 1.85156 114.314 2.52561 114.314 3.35931V18.7206C114.314 21.062 115.148 22.4456 116.638 23.4212C118.092 24.3614 119.742 24.7871 122.864 24.7871H124.549C125.382 24.7871 126.056 24.113 126.056 23.2793V21.6297H124.779C123.857 21.6297 121.924 21.5942 120.788 20.8314C119.299 19.8558 119.423 18.0998 119.423 16.8404V3.35931Z" fill="#EA0029"/>
<path d="M86.6097 21.63C85.6874 21.63 83.754 21.5945 82.6189 20.8318C81.129 19.8562 81.2531 18.1001 81.2531 16.8407V9.35516H86.2195C87.0531 9.35516 87.7271 8.68111 87.7271 7.84741V6.19776H81.2354V3.35964C81.2354 2.52595 80.5614 1.8519 79.7278 1.8519H77.6348C76.8012 1.8519 76.1272 2.52595 76.1272 3.35964V6.2155H65.4319V3.35964C65.4319 2.52595 64.7579 1.8519 63.9242 1.8519H61.8313C60.9799 1.83416 60.3059 2.52595 60.3059 3.35964V6.2155H57.1133V7.86515C57.1133 8.69884 57.7873 9.3729 58.6209 9.3729H60.3059V18.7387C60.3059 21.0979 61.1395 22.4637 62.6294 23.4393C64.0839 24.3794 65.7334 24.8051 68.8551 24.8051H70.5401C71.3737 24.8051 72.0477 24.1311 72.0477 23.2974V21.6477H70.7707C69.8483 21.6477 67.915 21.6123 66.7799 20.8495C65.29 19.8739 65.4141 18.1178 65.4141 16.8584V9.35516H76.1094V18.7209C76.1094 21.0801 76.9431 22.446 78.433 23.4216C79.8874 24.3617 81.5369 24.7874 84.6586 24.7874H86.3436C87.1772 24.7874 87.8512 24.1133 87.8512 23.2797V21.63H86.6097Z" fill="#EA0029"/>
<path d="M55.215 23.2796V21.63H43.8634C41.9833 21.63 39.8371 21.4171 39.1809 19.4305C39.0035 18.8628 38.8793 17.6744 38.8793 16.8761H52.3771C53.2994 16.8761 54.1685 16.7342 54.878 16.1666C55.8358 15.4039 55.9777 14.3041 55.9777 13.364C55.9777 11.0225 55.4101 8.69883 52.6963 7.33299C50.5502 6.25096 47.7478 6.14453 45.034 6.14453C42.8346 6.14453 38.8971 6.14453 36.3607 7.90061C33.8243 9.6567 33.5938 12.211 33.5938 15.6877C33.5938 18.1356 33.7179 20.7076 35.261 22.4637C37.1943 24.6277 39.9968 24.8051 42.3558 24.8051H53.7251C54.541 24.7874 55.215 24.1133 55.215 23.2796ZM50.6566 12.619C50.6566 13.1156 50.5324 13.701 49.5214 13.701H42.2316C40.387 13.701 38.8793 14.5524 38.8793 15.599V13.701C38.9148 12.4771 38.8793 11.466 39.9258 10.5081C41.327 9.24872 43.4377 9.28419 44.7857 9.28419C46.2401 9.28419 47.8896 9.35515 49.1667 10.1179C49.9117 10.5791 50.6566 11.466 50.6566 12.619Z" fill="#EA0029"/>
<path d="M110.66 23.2796V21.63H99.3087C97.4286 21.63 95.2824 21.4171 94.6262 19.4305C94.4488 18.8628 94.3246 17.6744 94.3246 16.8761H107.822C108.745 16.8761 109.614 16.7342 110.323 16.1666C111.281 15.4039 111.423 14.3041 111.423 13.364C111.423 11.0225 110.855 8.69883 108.142 7.33299C105.995 6.25096 103.193 6.14453 100.479 6.14453C98.28 6.14453 94.3424 6.14453 91.806 7.90061C89.2696 9.6567 89.0391 12.211 89.0391 15.6877C89.0391 18.1356 89.1632 20.7076 90.7063 22.4637C92.6396 24.6277 95.4421 24.8051 97.8011 24.8051H109.17C109.986 24.7874 110.66 24.1133 110.66 23.2796ZM106.102 12.619C106.102 13.1156 105.978 13.701 104.967 13.701H97.6769C95.8145 13.701 94.3246 14.5524 94.3246 15.599V13.701C94.3601 12.4771 94.3246 11.466 95.3711 10.5081C96.7723 9.24872 98.883 9.28419 100.231 9.28419C101.685 9.28419 103.335 9.35515 104.612 10.1179C105.357 10.5791 106.102 11.466 106.102 12.619Z" fill="#EA0029"/>
<path d="M29.1592 1H27.0662C26.2326 1 25.5586 1.67405 25.5586 2.50775V2.93347V6.1973H25.5763C25.7182 5.34586 26.6938 4.44121 28.1127 4.44121H29.1592C29.9928 4.44121 30.6668 3.76716 30.6668 2.93347V2.50775C30.6845 1.67405 29.9928 1 29.1592 1Z" fill="#EA0029"/>
</svg>
