<svg id="Layer_1" data-name="Layer 1" xmlns="http://www.w3.org/2000/svg" viewBox="0 0 1159.44342 370.26855"><defs><style>.cls-1{font-size:407.98874px;font-family:iCielCrocante, iCiel Crocante;}.cls-1,.cls-3{fill:#fff;}.cls-2{letter-spacing:-0.01074em;}</style></defs><title>logo</title><text class="cls-1" transform="translate(0 345.03711)"><tspan class="cls-2">Q</tspan><tspan x="239.05615" y="0" xml:space="preserve">BU  </tspan></text><path class="cls-3" d="M836.24121,246.26611c26.123,0,47.44434,20.47364,47.44434,50.3501,0,32.30274-21.46289,52.625-48.15039,52.625-28.24121,0-48.71582-22.14209-48.71582-51.41162C786.81934,271.896,804.0459,246.26611,836.24121,246.26611Zm-2.11816,6.67285c-14.40332,0-24.99317,15.16553-24.99317,42.00879,0,25.63038,9.46094,47.62061,28.52344,47.62061,13.41406,0,23.86328-13.95264,23.86328-41.70606C861.5166,270.83447,850.50293,252.939,834.12305,252.939Z" transform="translate(-35.17139 -184.41699)"/><path class="cls-3" d="M935.64648,346.96631v-5.15625c5.93067-.91016,6.3545-1.5166,6.3545-11.981V303.89551c0-10.76758-4.94239-14.104-9.88477-14.104-3.6709,0-6.77734,1.51661-10.58984,4.54981v36.70117c0,9.251.56445,9.85742,6.35449,10.76758v5.15625H895.12109v-5.15625c7.34278-1.36524,8.18946-1.5166,8.18946-11.37451V298.89111c0-9.09961-1.12891-9.55468-7.34278-10.91943v-4.853a138.56473,138.56473,0,0,0,25.84082-5.76318c-.1416,2.12353-.28222,7.43164-.28222,10.91943,2.82422-2.123,5.78906-4.39795,9.03711-6.521,4.23632-2.73,6.91894-3.94336,11.01367-3.94336,11.4375,0,18.63965,8.94775,18.63965,24.417v28.66309c0,9.40283.84668,9.85791,7.625,10.91943v5.15625Z" transform="translate(-35.17139 -184.41699)"/><path class="cls-3" d="M973.91211,346.96631v-5.15625c8.04883-1.36524,8.33105-2.12354,8.33105-11.67774v-69.0039c0-7.88623-.84668-8.79639-8.18945-10.46436v-4.853c9.74317-1.06153,19.62695-2.88135,26.40527-5.15625v89.47753c0,10.00928.42383,10.61622,8.47266,11.67774v5.15625Z" transform="translate(-35.17139 -184.41699)"/><path class="cls-3" d="M1015.42578,346.96631v-5.15625c7.625-1.06152,8.47168-1.66846,8.47168-12.436V299.80078c0-10.16064-.70605-10.76758-7.34277-11.67724v-5.00489a145.17375,145.17375,0,0,0,25.55859-5.45947V329.374c0,10.3125.56445,11.37452,8.75488,12.436v5.15625Zm16.52051-78.5586c-5.36524,0-10.167-4.853-10.167-10.76757a10.49272,10.49272,0,0,1,10.30859-10.76758c5.64746,0,10.166,4.5498,10.166,10.76758A10.50343,10.50343,0,0,1,1031.94629,268.40771Z" transform="translate(-35.17139 -184.41699)"/><path class="cls-3" d="M1097.88965,346.96631v-5.15625c5.93066-.91016,6.35449-1.5166,6.35449-11.981V303.89551c0-10.76758-4.94238-14.104-9.88476-14.104-3.6709,0-6.77735,1.51661-10.58985,4.54981v36.70117c0,9.251.56445,9.85742,6.35449,10.76758v5.15625h-32.75976v-5.15625c7.34277-1.36524,8.18945-1.5166,8.18945-11.37451V298.89111c0-9.09961-1.12988-9.55468-7.34277-10.91943v-4.853a138.56491,138.56491,0,0,0,25.84082-5.76318c-.1416,2.12353-.28223,7.43164-.28223,10.91943,2.82422-2.123,5.78906-4.39795,9.03711-6.521,4.23633-2.73,6.91895-3.94336,11.01367-3.94336,11.4375,0,18.63965,8.94775,18.63965,24.417v28.66309c0,9.40283.84668,9.85791,7.625,10.91943v5.15625Z" transform="translate(-35.17139 -184.41699)"/><path class="cls-3" d="M1194.18945,332.104c-8.61328,13.64893-19.91015,16.68213-25.84082,16.68213-18.9209,0-29.65332-15.01416-29.65332-33.061,0-10.61621,4.66016-21.08057,10.59082-27.29834,6.3545-6.82471,14.26172-10.61621,22.02832-10.61621,13.83789,0,23.43946,12.28418,23.29883,24.72021,0,2.57813-.1416,5.15625-1.83594,5.61133-2.68261.7583-22.59277,1.81982-36.29,2.42627.56543,16.07568,8.89649,24.26562,19.0625,24.26562,5.50782,0,11.01465-2.12353,16.09766-6.8247Zm-25.69922-48.07519c-5.64843,0-10.44921,7.12744-11.29687,19.1084,5.79-.15137,11.15527-.30323,17.08594-.45459,1.97656-.15186,2.82422-.45508,2.82422-3.03321C1177.24414,292.06641,1173.99707,284.02881,1168.49023,284.02881Z" transform="translate(-35.17139 -184.41699)"/><path class="cls-3" d="M829.32227,435.9834c-9.88477,1.21338-11.15528,2.123-11.15528,14.8623v50.04688c0,17.59277-1.55371,32.30273-14.96777,43.67773a47.8851,47.8851,0,0,1-17.50977,9.251l-2.25879-5.76367c7.90723-3.791,12.002-9.09864,13.55567-18.65332,1.27051-8.49317,1.55273-17.89551,1.55273-29.11817V450.8457c0-12.73925-1.41211-13.80078-12.28418-14.8623v-5.61133h43.06739Z" transform="translate(-35.17139 -184.41699)"/><path class="cls-3" d="M903.59473,525.30957c-8.47266,1.21289-17.50977,3.18457-26.8291,5.46V520.45605c-5.78907,5.15625-11.71973,10.31348-19.48633,10.31348-11.86133,0-18.49707-8.18945-18.49707-21.6875V477.68945c0-6.97656-.84766-7.73437-4.66016-8.79687l-2.96582-.90918v-4.85352c7.20215-.30273,18.35742-1.36523,26.26465-2.57812-.28223,6.37012-.42383,14.25586-.42383,22.90039v22.1416c0,9.8584,4.66016,13.19434,9.60254,13.19434,3.95312,0,7.05957-.91016,10.166-4.39746V477.84082c0-6.97656-.70606-8.18945-4.65918-8.94824l-4.23633-.90918v-4.85352a246.67127,246.67127,0,0,0,27.25195-2.57812v49.44043c0,7.88574.84766,9.55469,5.36621,10.00879l3.10645.30371Z" transform="translate(-35.17139 -184.41699)"/><path class="cls-3" d="M983.6582,525.00586c-3.38867.60644-16.37988,2.42676-27.67578,5.915V522.125c-2.542,1.81934-6.07226,4.09473-8.61426,5.91406-3.38867,2.27539-5.50683,2.73047-7.05957,2.73047-12.00293,0-29.08886-11.07129-29.08886-33.668,0-20.77734,17.08593-37.30761,39.11425-37.30761a29.61581,29.61581,0,0,1,5.64844.45507V442.80811c0-8.03809-.70605-8.79639-9.46094-10.00928V427.794c9.31934-1.06153,20.75684-3.03321,27.81739-5.15625v87.20312c0,8.18945.84668,8.94727,6.21289,9.70606l3.10644.4541Zm-27.67578-50.80469a11.02424,11.02424,0,0,0-10.59082-7.583c-4.377,0-13.83789,3.18457-13.83789,25.17481,0,19.86719,10.30762,27.14648,16.66211,27.29883a12.3554,12.3554,0,0,0,7.7666-2.57813Z" transform="translate(-35.17139 -184.41699)"/><path class="cls-3" d="M1010.62891,505.291c-1.41211,1.668-2.542,3.63964-2.542,5.15625,0,2.42675,2.68262,5.61132,8.04883,5.61132h15.95606c8.61328,0,21.18066,3.791,21.18066,18.65332,0,17.1377-19.48633,30.78711-38.2666,30.78711-18.49805,0-26.8291-9.70605-26.8291-18.04785a9.55465,9.55465,0,0,1,4.23633-8.34082c3.8125-2.88183,7.48339-5.46,10.59082-7.583-5.64844-2.27441-8.61426-5.30761-10.59082-8.49316a13.88315,13.88315,0,0,1-2.25879-8.34082c6.63574-3.0332,12.5664-7.583,15.25-11.07129Zm6.77734,1.5166c-16.09766,0-26.54687-9.251-26.54687-22.90039,0-16.37891,14.68554-24.11328,27.39453-24.11328a32.46921,32.46921,0,0,1,15.956,3.94238c5.93067,0,15.95606-1.06153,19.48633-2.12305l.70605,1.21387c-.84765,2.72949-2.68359,7.73437-5.22461,9.40234-2.40039,0-6.35449-.60644-8.33105-.75879,2.11816,2.73047,3.38867,6.67383,3.38867,12.43653C1044.23535,499.07324,1031.24414,506.80762,1017.40625,506.80762Zm1.69434,25.1748c-7.20118,0-10.73145.91016-12.84961,2.88184a11.31546,11.31546,0,0,0-3.95313,8.34082c0,8.03808,7.05957,14.25586,19.20313,14.25586,10.873,0,17.65136-5.46,17.65136-13.64942a10.355,10.355,0,0,0-7.7666-10.46386A42.02943,42.02943,0,0,0,1019.10059,531.98242Zm-1.55274-66.42578c-4.37793,0-8.75488,5.61133-8.75488,16.68262,0,10.3125,3.24805,18.80469,9.88379,18.80469,5.50781,0,8.61426-6.21778,8.61426-17.13672C1027.291,474.35254,1024.3252,465.55664,1017.54785,465.55664Z" transform="translate(-35.17139 -184.41699)"/><path class="cls-3" d="M1112.2959,514.08691c-8.61328,13.64942-19.91016,16.68262-25.84082,16.68262-18.9209,0-29.65332-15.01465-29.65332-33.06152,0-10.61621,4.66015-21.08008,10.59082-27.29883,6.35449-6.82422,14.26172-10.61523,22.02832-10.61523,13.83789,0,23.43945,12.28418,23.29883,24.71972,0,2.57813-.1416,5.15625-1.83594,5.61133-2.68262.75781-22.59277,1.82031-36.29,2.42676.56543,16.07519,8.89648,24.26465,19.0625,24.26465,5.50781,0,11.01465-2.12305,16.09766-6.82422Zm-25.69922-48.07519c-5.64844,0-10.44922,7.12793-11.29688,19.1084,5.79-.15137,11.15528-.30274,17.08594-.45508,1.97656-.15137,2.82422-.45508,2.82422-3.0332C1095.35156,474.0498,1092.10352,466.01172,1086.59668,466.01172Z" transform="translate(-35.17139 -184.41699)"/></svg>