<?xml version="1.0" standalone="no"?>
<!DOCTYPE svg PUBLIC "-//W3C//DTD SVG 20010904//EN"
 "http://www.w3.org/TR/2001/REC-SVG-20010904/DTD/svg10.dtd">
<svg version="1.0" xmlns="http://www.w3.org/2000/svg"
 width="646.000000pt" height="646.000000pt" viewBox="0 0 646.000000 646.000000"
 preserveAspectRatio="xMidYMid meet">
<metadata>
Created by potrace 1.11, written by Peter Selinger 2001-2013
</metadata>
<g transform="translate(0.000000,646.000000) scale(0.100000,-0.100000)"
fill="#000000" stroke="none">
<path d="M1480 5007 c0 -8 139 -354 205 -512 7 -16 56 -136 108 -265 52 -129
115 -284 140 -345 25 -60 66 -162 92 -225 66 -164 69 -170 80 -171 83 -6 396
-2 399 6 2 6 81 199 176 430 161 393 213 522 354 869 31 76 65 156 76 177 12
26 14 39 7 40 -48 4 -391 3 -397 -1 -6 -4 -170 -393 -170 -404 0 -2 -8 -21
-17 -42 -9 -22 -17 -41 -18 -44 -1 -3 -6 -16 -12 -30 -6 -14 -25 -61 -42 -105
-18 -44 -38 -93 -45 -110 -7 -16 -32 -79 -56 -139 -31 -77 -45 -104 -51 -93
-8 13 -69 164 -263 653 -31 78 -56 144 -56 147 0 4 -12 32 -26 64 -15 31 -27
63 -28 70 -5 34 -25 37 -241 37 -118 1 -215 -3 -215 -7z"/>
<path d="M3371 5010 c-9 -7 -8 -1506 1 -1515 4 -4 95 -8 202 -9 l195 -1 -1
398 c0 219 2 400 4 402 2 2 22 -19 44 -48 59 -75 390 -496 424 -537 15 -19 56
-71 90 -115 35 -44 66 -84 70 -88 6 -7 168 -11 311 -8 l37 1 0 760 0 760 -22
1 c-11 1 -102 2 -202 3 l-180 1 1 -395 c0 -217 -1 -399 -3 -403 -2 -4 -33 29
-68 75 -36 46 -73 92 -82 103 -9 12 -39 50 -67 85 -27 36 -52 67 -55 70 -3 3
-28 34 -55 70 -51 66 -72 93 -90 114 -6 6 -35 43 -65 81 -30 39 -58 75 -62 80
-5 6 -27 34 -49 63 -22 28 -48 52 -57 53 -69 4 -315 3 -321 -1z"/>
<path d="M2145 3259 c-140 -28 -272 -99 -380 -204 -172 -167 -254 -413 -223
-665 8 -61 51 -194 70 -218 7 -8 12 -18 11 -21 -5 -12 76 -127 124 -176 156
-163 354 -245 578 -240 279 7 533 161 659 399 31 58 75 176 82 220 20 122 8
307 -27 401 -19 50 -73 159 -86 173 -7 7 -13 17 -13 21 0 16 -148 161 -200
196 -85 57 -209 108 -300 122 -78 13 -212 9 -295 -8z"/>
<path d="M3521 3261 c-6 -4 -31 -7 -54 -5 l-43 3 1 -207 0 -207 200 -2 c110 0
207 -1 216 -2 15 -1 16 -37 17 -356 l0 -354 -172 0 c-94 0 -191 0 -216 0 l-46
-1 1 -202 0 -203 110 -3 c61 -1 139 -2 175 -1 36 1 72 1 80 1 8 -1 188 -1 400
0 212 0 392 -1 400 -1 16 -1 49 0 90 2 l25 2 0 204 0 204 -217 -1 c-217 0
-218 0 -218 21 -4 169 -1 680 4 685 4 3 100 7 214 7 114 1 210 3 214 4 4 0 6
92 5 204 l-2 202 -100 3 c-55 1 -104 2 -110 3 -5 0 -22 -2 -37 -4 -16 -2 -28
0 -28 6 0 6 -5 6 -12 0 -14 -10 -857 -11 -874 -1 -5 4 -16 3 -23 -1z"/>
</g>
</svg>
