<?xml version="1.0" standalone="no"?>
<!DOCTYPE svg PUBLIC "-//W3C//DTD SVG 20010904//EN"
 "http://www.w3.org/TR/2001/REC-SVG-20010904/DTD/svg10.dtd">
<svg version="1.0" xmlns="http://www.w3.org/2000/svg"
 width="947.000000pt" height="947.000000pt" viewBox="0 0 947.000000 947.000000"
 preserveAspectRatio="xMidYMid meet">
<metadata>
Created by potrace 1.14, written by Peter Selinger 2001-2017
</metadata>
<g transform="translate(0.000000,947.000000) scale(0.100000,-0.100000)"
fill="#000000" stroke="none">
<path d="M554 6521 c-188 -40 -364 -171 -462 -342 -109 -192 -118 -445 -23
-649 49 -107 118 -191 215 -263 78 -59 126 -83 231 -118 68 -22 82 -23 498
-27 235 -2 427 -1 427 2 0 3 -49 54 -110 112 l-109 107 40 45 c49 56 113 184
136 272 25 99 23 265 -6 360 -114 373 -463 582 -837 501z"/>
<path d="M1500 5761 l0 -641 470 0 470 0 0 635 0 635 -188 0 -188 0 1 -370 c0
-204 -2 -370 -5 -370 -3 0 -130 170 -282 376 l-278 376 0 -641z"/>
<path d="M3135 5933 c-111 -23 -169 -71 -201 -164 -17 -49 -19 -87 -19 -389 0
-379 6 -417 71 -490 46 -51 110 -72 227 -74 87 -2 96 -5 169 -45 l76 -42 38
63 c20 35 39 66 41 70 2 4 -12 15 -31 25 -41 19 -41 20 -22 59 8 16 19 52 23
79 10 56 9 653 -1 700 -4 17 -19 55 -34 85 -29 60 -70 93 -136 111 -43 12
-166 19 -201 12z m115 -221 c22 -18 22 -20 23 -328 0 -170 -3 -319 -7 -331
-13 -41 -90 -42 -104 -2 -5 11 -8 162 -7 335 0 300 1 316 19 330 26 19 49 18
76 -4z"/>
<path d="M6055 5931 c-128 -24 -190 -97 -211 -251 -9 -62 -10 -489 -2 -577 15
-171 79 -258 203 -281 17 -3 60 -5 98 -5 53 0 78 6 119 27 l52 27 16 -21 c12
-16 27 -21 58 -22 24 0 46 3 50 7 4 4 7 150 7 326 0 312 0 320 -20 324 -32 6
-253 1 -260 -7 -4 -3 -8 -39 -9 -79 -2 -78 9 -101 44 -92 21 5 21 2 19 -112
-2 -143 -4 -150 -40 -165 -38 -16 -85 2 -91 34 -3 13 -4 161 -4 330 1 292 2
308 20 322 27 19 52 18 76 -6 16 -16 20 -33 20 -90 l0 -71 123 3 122 3 0 40
c2 164 -50 272 -150 316 -46 21 -177 31 -240 20z"/>
<path d="M3658 5919 c-6 -4 -8 -169 -6 -450 3 -438 4 -445 27 -502 42 -106
118 -149 266 -150 101 -1 173 19 218 58 37 33 75 117 82 185 5 43 9 682 6 835
l-1 30 -112 -1 c-62 -1 -116 -2 -120 -3 -5 -1 -8 -194 -8 -431 0 -417 -1 -431
-20 -450 -21 -21 -55 -26 -80 -10 -13 8 -15 71 -18 450 -1 242 -6 440 -10 441
-37 4 -216 3 -224 -2z"/>
<path d="M4556 5910 c-6 -8 -23 -37 -37 -65 -99 -193 -139 -414 -144 -787 -2
-226 -2 -228 19 -229 11 0 66 0 120 -1 l100 0 0 88 1 89 58 3 57 3 0 -91 0
-90 28 -1 c72 -2 203 1 210 5 14 8 3 474 -13 556 -2 12 -7 48 -11 79 -3 31 -8
59 -10 62 -2 3 -6 21 -9 40 -12 65 -66 215 -104 284 l-37 70 -108 0 c-83 0
-110 -3 -120 -15z m138 -291 c18 -104 26 -178 32 -286 l7 -120 -54 2 c-30 2
-57 3 -61 4 -3 1 -5 20 -3 44 2 23 6 89 10 147 6 93 24 206 42 265 6 19 6 19
14 -1 4 -12 10 -37 13 -55z"/>
<path d="M5104 5921 c-2 -2 -4 -249 -4 -548 l0 -543 30 -1 c17 0 59 0 95 0 36
0 76 0 90 0 l25 1 0 363 0 362 21 -45 c12 -25 30 -72 40 -105 18 -55 26 -86
44 -170 4 -16 9 -113 12 -215 3 -102 7 -187 8 -188 3 -3 121 -5 203 -3 l32 1
0 544 c0 426 -3 545 -12 548 -11 3 -160 3 -210 -1 -16 -1 -18 -15 -19 -138 0
-109 -3 -133 -11 -113 -64 144 -121 250 -136 251 -58 3 -204 3 -208 0z"/>
<path d="M6950 5922 c-7 -2 -10 -194 -10 -548 l0 -544 28 -1 c101 -2 202 0
209 4 4 3 8 163 7 356 -1 274 1 348 11 334 34 -52 89 -237 99 -338 3 -27 6
-120 6 -205 l0 -155 98 2 c53 1 107 2 120 2 l22 1 0 548 0 547 -117 -1 -118 0
-5 -140 c-3 -76 -7 -132 -8 -124 -1 8 -29 70 -62 138 -42 86 -64 122 -77 123
-57 3 -195 4 -203 1z"/>
<path d="M7713 5922 l-23 -3 0 -545 0 -544 28 -1 c83 -2 205 0 209 5 7 6 10
1086 3 1087 -15 3 -198 4 -217 1z"/>
<path d="M8094 5921 c-2 -2 -4 -249 -4 -548 0 -510 1 -543 18 -544 23 -1 149
-1 190 0 l32 1 0 363 1 362 28 -65 c26 -62 62 -184 76 -260 4 -19 9 -116 12
-215 3 -99 6 -181 8 -183 3 -3 92 -4 183 -3 l52 1 -2 547 -3 547 -115 0 -115
-1 -5 -137 -5 -138 -30 69 c-16 37 -46 99 -66 137 l-37 69 -107 1 c-59 1 -109
-1 -111 -3z"/>
<path d="M8842 5912 c-2 -7 -5 -254 -6 -548 l-1 -534 23 -1 c12 0 66 -1 120
-1 l97 -1 3 252 2 251 55 0 55 0 1 -62 c0 -35 0 -147 0 -250 -1 -172 1 -188
17 -189 89 -3 214 0 219 5 12 11 9 1069 -3 1080 -6 7 -54 11 -120 10 l-109 -1
-2 -89 c-1 -49 -2 -137 -2 -196 l-1 -108 -55 0 -55 0 0 195 c0 149 -3 195 -12
196 -7 1 -60 2 -117 3 -77 1 -105 -2 -109 -12z"/>
<path d="M1874 4976 c-185 -86 -185 -346 1 -432 120 -56 263 -2 315 118 26 61
29 106 11 171 -15 52 -69 115 -123 143 -52 28 -145 27 -204 0z"/>
<path d="M715 4962 c-146 -13 -268 -56 -370 -132 -129 -96 -210 -208 -265
-370 -25 -73 -37 -260 -20 -320 5 -19 11 -46 14 -60 27 -153 178 -349 334
-437 111 -62 201 -86 332 -87 124 -1 156 3 240 32 232 80 402 263 459 493 71
286 -28 565 -265 747 -116 89 -316 147 -459 134z m187 -117 c204 -53 361 -199
429 -398 13 -39 23 -99 26 -162 9 -177 -47 -324 -172 -451 -177 -179 -420
-229 -655 -137 -181 72 -319 235 -366 434 -16 67 -13 200 7 276 53 205 223
378 424 434 82 22 227 24 307 4z"/>
<path d="M635 4784 c-225 -51 -405 -264 -418 -494 -3 -56 17 -190 33 -220 8
-15 57 -17 504 -17 352 0 498 3 505 11 19 24 37 128 35 207 -5 236 -155 433
-384 504 -70 22 -198 26 -275 9z m-32 -204 c14 -11 36 -19 49 -18 30 3 91 -39
84 -58 -3 -7 -2 -15 2 -18 4 -2 16 16 26 40 15 38 22 44 45 42 15 -1 32 2 39
6 21 13 51 -4 68 -37 18 -33 92 -117 105 -117 18 0 202 -116 211 -133 7 -14 5
-23 -6 -36 -9 -10 -15 -29 -14 -42 3 -21 -2 -24 -50 -30 -39 -5 -59 -14 -77
-33 -25 -27 -25 -27 -147 -23 -123 5 -158 11 -158 29 0 5 -7 16 -15 25 -8 8
-13 18 -10 23 7 12 16 210 9 221 -6 10 -21 -3 -46 -39 -13 -19 -14 -29 -5 -52
8 -22 7 -51 -4 -117 l-14 -88 -125 -3 c-69 -1 -135 0 -147 3 -12 3 -45 25 -74
50 -65 55 -73 94 -28 127 20 15 29 31 29 49 0 14 7 32 14 39 8 6 20 26 25 43
7 20 22 37 41 45 26 12 28 16 19 34 -13 24 -3 36 56 67 49 26 66 26 98 1z"/>
<path d="M288 3993 c9 -15 48 -17 468 -18 441 -1 473 1 474 28 0 4 -214 7
-475 7 -445 0 -475 -1 -467 -17z"/>
<path d="M336 3915 c5 -13 59 -15 422 -13 321 2 416 6 420 16 3 9 -86 12 -422
12 -375 0 -425 -2 -420 -15z"/>
<path d="M410 3849 c0 -4 15 -18 33 -31 137 -105 344 -130 511 -63 60 24 159
86 151 94 -8 7 -695 7 -695 0z"/>
<path d="M4339 4620 c0 -11 0 -198 0 -415 0 -217 0 -406 0 -420 1 -23 4 -25
54 -25 l52 0 1 440 1 440 -54 0 c-46 0 -53 -3 -54 -20z"/>
<path d="M4613 4578 c1 -35 5 -62 10 -60 4 1 27 2 51 2 42 0 44 1 47 33 2 17
3 44 1 60 -3 26 -6 27 -57 27 l-54 0 2 -62z"/>
<path d="M6594 4580 c0 -35 4 -60 10 -61 56 -5 89 -3 93 5 4 5 7 33 7 63 l1
53 -55 0 -56 0 0 -60z"/>
<path d="M7957 4633 c-2 -5 -3 -74 -3 -155 l1 -147 -25 22 c-63 55 -142 70
-231 43 -114 -34 -182 -143 -188 -301 -7 -192 111 -346 268 -346 65 -1 117 19
154 57 30 32 34 30 32 -11 l-3 -35 49 0 c27 0 50 3 50 8 1 4 2 202 3 440 l1
432 -52 0 c-28 0 -54 -3 -56 -7z m-99 -327 c43 -22 70 -58 90 -116 25 -75 21
-191 -9 -255 -62 -131 -226 -130 -290 2 -20 40 -24 64 -24 143 0 81 4 102 25
145 31 63 78 95 137 95 24 0 56 -6 71 -14z"/>
<path d="M1730 4460 c-4 -3 -10 -233 -12 -511 -3 -489 -4 -508 -23 -529 -29
-32 -46 -38 -82 -28 -44 11 -62 49 -60 122 2 32 -1 60 -5 62 -5 3 -83 -36
-176 -87 -92 -51 -189 -105 -217 -120 -27 -15 -51 -34 -53 -43 -6 -27 67 -150
121 -208 294 -308 799 -217 959 174 35 87 39 108 41 213 1 44 5 83 10 86 4 3
45 5 92 4 59 -1 82 2 76 9 -4 6 -45 57 -90 114 -44 57 -81 113 -82 125 0 12 0
156 0 320 l0 297 -32 1 c-112 4 -460 3 -467 -1z"/>
<path d="M3122 4392 c-79 -29 -122 -69 -160 -152 -22 -46 -26 -69 -26 -150 0
-109 12 -158 54 -222 53 -80 136 -119 253 -120 115 -1 237 87 269 195 7 23 13
89 13 147 0 85 -4 113 -21 150 -26 56 -87 120 -138 144 -58 27 -178 31 -244 8z
m187 -86 c37 -20 89 -79 98 -114 13 -46 9 -194 -6 -232 -65 -162 -276 -164
-337 -3 -20 53 -23 183 -5 236 16 48 57 96 96 113 40 18 119 17 154 0z"/>
<path d="M3869 4396 c-42 -15 -99 -53 -99 -67 0 -5 -5 -9 -11 -9 -6 0 -9 15
-7 38 l3 37 -50 0 -49 0 0 -315 0 -315 54 0 54 0 1 215 c1 174 5 221 17 245
43 81 137 116 214 79 63 -30 67 -51 69 -309 l1 -230 54 0 55 0 -1 241 c-1 259
-6 290 -53 342 -50 56 -167 79 -252 48z"/>
<path d="M5097 4396 c-43 -16 -63 -30 -93 -64 l-21 -24 -1 28 c0 67 2 65 -49
62 l-47 -3 -1 -318 0 -317 53 0 c28 0 52 3 53 8 1 4 2 100 3 214 2 171 5 213
19 245 34 75 123 109 204 78 73 -28 77 -43 77 -310 l1 -230 55 0 54 0 0 235
c-1 255 -8 299 -51 346 -54 59 -169 81 -256 50z"/>
<path d="M5738 4399 c-124 -33 -199 -156 -200 -324 -1 -185 85 -299 244 -322
142 -22 262 35 315 148 24 51 20 56 -47 60 -42 3 -45 2 -65 -35 -30 -59 -84
-90 -152 -88 -94 1 -163 65 -182 166 -7 39 -6 46 8 47 9 1 117 1 240 1 l224 0
-6 73 c-10 136 -83 239 -194 271 -52 15 -135 17 -185 3z m170 -93 c15 -8 37
-25 50 -39 24 -25 55 -111 45 -121 -4 -3 -85 -6 -180 -6 l-175 0 7 33 c14 64
54 115 105 136 37 15 117 13 148 -3z"/>
<path d="M8377 4396 c-109 -39 -174 -143 -182 -291 -10 -170 75 -306 209 -336
73 -16 135 -5 195 35 l49 33 -4 -65 c-4 -76 -29 -130 -70 -154 -40 -23 -114
-32 -164 -18 -42 11 -94 55 -85 71 8 12 -25 27 -70 30 l-40 4 3 -35 c11 -108
110 -169 265 -165 142 4 232 72 258 193 7 37 12 172 13 377 l1 320 -50 0 c-50
0 -50 0 -50 -32 1 -18 -1 -33 -3 -33 -2 0 -19 13 -38 29 -56 50 -157 65 -237
37z m191 -106 c60 -43 84 -103 83 -206 0 -94 -17 -143 -61 -186 -88 -83 -223
-47 -271 72 -17 43 -17 181 -1 230 37 110 161 155 250 90z"/>
<path d="M9075 4397 c-27 -8 -59 -30 -97 -68 -71 -70 -91 -130 -91 -267 0 -85
2 -97 34 -160 53 -104 144 -156 273 -154 117 2 195 47 246 144 28 53 26 64
-16 66 -20 2 -39 3 -43 4 -21 2 -32 -6 -51 -40 -32 -57 -78 -83 -143 -83 -63
0 -104 17 -141 61 -27 32 -59 122 -50 143 3 9 63 12 240 11 l235 -1 -2 51 c-7
186 -127 309 -298 305 -31 -1 -74 -6 -96 -12z m206 -110 c31 -23 47 -46 60
-82 9 -27 15 -53 13 -57 -3 -5 -84 -8 -180 -8 -197 0 -191 -3 -154 79 32 69
83 100 167 101 43 0 58 -5 94 -33z"/>
<path d="M4612 4080 l0 -320 54 0 54 0 1 33 c0 38 0 540 -1 580 0 26 -2 27
-54 27 l-54 0 0 -320z"/>
<path d="M6594 4026 c0 -431 1 -426 -78 -426 -43 0 -43 0 -50 -41 -4 -23 -5
-43 -3 -45 2 -2 24 -5 50 -8 59 -6 113 9 143 39 42 42 47 87 48 482 l1 373
-55 0 -55 0 -1 -374z"/>
<path d="M6868 4388 c-3 -7 -4 -119 -3 -249 1 -222 3 -238 24 -282 25 -52 56
-78 114 -97 89 -28 176 -10 242 51 l42 38 -2 -44 -2 -45 48 0 49 0 0 320 0
320 -53 0 -53 0 0 -197 c0 -231 -5 -262 -44 -307 -73 -82 -224 -66 -246 27 -4
17 -9 129 -10 247 -1 118 -2 218 -3 223 -2 13 -99 8 -103 -5z"/>
</g>
</svg>
