<?xml version="1.0" standalone="no"?>
<!DOCTYPE svg PUBLIC "-//W3C//DTD SVG 20010904//EN"
 "http://www.w3.org/TR/2001/REC-SVG-20010904/DTD/svg10.dtd">
<svg version="1.0" xmlns="http://www.w3.org/2000/svg"
 width="614.000000pt" height="614.000000pt" viewBox="0 0 614.000000 614.000000"
 preserveAspectRatio="xMidYMid meet">
<metadata>
Created by potrace 1.11, written by Peter Selinger 2001-2013
</metadata>
<g transform="translate(0.000000,614.000000) scale(0.100000,-0.100000)"
fill="#000000" stroke="none">
<path d="M55 6038 c26 -51 50 -100 55 -109 5 -9 113 -225 241 -480 363 -727
531 -1062 540 -1079 8 -15 314 -628 533 -1067 61 -123 113 -223 116 -223 3 0
86 162 185 361 99 198 181 361 181 362 1 1 263 525 583 1165 l581 1162 -1531
0 -1530 0 46 -92z"/>
<path d="M3080 3070 l0 -3060 1530 0 1530 0 0 3060 0 3060 -1530 0 -1530 0 0
-3060z"/>
<path d="M1345 3060 c-90 -14 -109 -17 -200 -40 -482 -121 -893 -500 -1058
-976 -59 -170 -80 -296 -81 -479 -1 -163 4 -228 24 -325 6 -30 13 -65 16 -77
10 -52 79 -233 116 -307 108 -215 282 -419 477 -559 92 -65 294 -173 376 -199
85 -28 237 -65 300 -74 116 -16 464 -8 496 12 3 2 21 6 40 9 109 19 284 83
404 148 275 149 503 385 643 663 35 69 98 231 107 274 2 8 8 33 13 55 6 22 14
60 17 85 4 25 11 70 15 100 11 72 5 351 -9 415 -6 28 -13 62 -15 76 -8 49 -46
176 -72 240 -156 383 -434 671 -814 842 -62 28 -229 83 -275 90 -16 3 -41 8
-55 11 -14 4 -41 9 -60 12 -58 9 -351 12 -405 4z"/>
</g>
</svg>
