<?xml version="1.0" encoding="iso-8859-1"?>
<!-- Generator: Adobe Illustrator 19.0.0, SVG Export Plug-In . SVG Version: 6.00 Build 0)  -->
<svg version="1.1" id="Layer_1" xmlns="http://www.w3.org/2000/svg" xmlns:xlink="http://www.w3.org/1999/xlink" x="0px" y="0px"
	 viewBox="0 0 496 496" style="enable-background:new 0 0 496 496;" xml:space="preserve">
<path style="fill:#ED3432;" d="M496,369.6c0,27.2-21.6,46.4-48,46.4H48c-26.4,0-48-19.2-48-46.4V126.4C0,99.2,21.6,80,48,80h400
	c26.4,0,48,19.2,48,46.4V369.6z"/>
<path style="fill:#DD0000;" d="M48,80h400c26.4,0,48,19.2,48,46.4v243.2c0,27.2-24.8,46.4-51.2,46.4"/>
<g>
	<path style="fill:#CC0202;" d="M48,80h400c26.4,0,48,19.2,48,46.4V216"/>
	<path style="fill:#CC0202;" d="M496,368.8c0,29.6-21.6,47.2-48,47.2H48c-26.4,0-48-20.8-48-48"/>
</g>
<polygon style="fill:#FDCE0C;" points="248,159.2 268.8,224 337.6,224 282.4,266.4 303.2,332 248,292 192.8,332.8 213.6,265.6 
	158.4,224 227.2,224 "/>
<polygon style="fill:#FC9C10;" points="268.8,224 248,159.2 227.2,224 224.8,224 286.4,278.4 282.4,264.8 337.6,224 "/>
<g>
</g>
<g>
</g>
<g>
</g>
<g>
</g>
<g>
</g>
<g>
</g>
<g>
</g>
<g>
</g>
<g>
</g>
<g>
</g>
<g>
</g>
<g>
</g>
<g>
</g>
<g>
</g>
<g>
</g>
</svg>
