<svg width="139" height="27" viewBox="0 0 139 27" fill="none" xmlns="http://www.w3.org/2000/svg">
<path d="M32.3151 6.22754H30.0316C29.1221 6.22754 28.3867 6.96296 28.3867 7.87256V24.8453C28.3867 25.7549 29.1221 26.4903 30.0316 26.4903H32.3151C33.2246 26.4903 33.96 25.7549 33.96 24.8453V7.89191C33.9794 6.96296 33.2246 6.22754 32.3151 6.22754Z" fill="#EA0029"/>
<path d="M24.0897 6.22754C22.6383 6.22754 21.4385 7.09843 20.8386 8.33703L14.7428 21.2649C14.6074 21.5746 14.3171 22.0778 14.0655 22.0778C13.8333 22.0778 13.543 21.5746 13.3882 21.2649L7.29244 8.33703C6.69254 7.09843 5.49273 6.22754 4.04136 6.22754H0.5L10.1565 24.942C11.1047 26.7806 13.0786 26.7419 14.0849 26.7419C15.4782 26.7419 17.1037 26.6645 17.9552 24.942L27.6117 6.22754H24.0897Z" fill="#EA0029"/>
<path d="M130.794 3.13037C130.794 2.22077 130.059 1.48535 129.149 1.48535H126.866C125.956 1.48535 125.221 2.22077 125.221 3.13037V19.8902C125.221 22.4448 126.13 23.9544 127.756 25.0188C129.343 26.0445 131.142 26.509 134.548 26.509H136.387C137.296 26.509 138.032 25.7736 138.032 24.864V23.0641H136.638C135.632 23.0641 133.523 23.0254 132.284 22.1932C130.659 21.1288 130.794 19.2128 130.794 17.8388V3.13037Z" fill="#EA0029"/>
<path d="M94.9943 23.064C93.9881 23.064 91.8787 23.0253 90.6402 22.1931C89.0147 21.1287 89.1501 19.2127 89.1501 17.8386V9.67161H94.5686C95.4781 9.67161 96.2135 8.93619 96.2135 8.02659V6.22675H89.1308V3.13025C89.1308 2.22065 88.3954 1.48523 87.4859 1.48523H85.2024C84.2929 1.48523 83.5575 2.22065 83.5575 3.13025V6.2461H71.8884V3.13025C71.8884 2.22065 71.1531 1.48523 70.2435 1.48523H67.96C67.0312 1.46587 66.2958 2.22065 66.2958 3.13025V6.2461H62.8125V8.04595C62.8125 8.95555 63.5479 9.69097 64.4574 9.69097H66.2958V19.9094C66.2958 22.4834 67.2053 23.9736 68.8309 25.038C70.4177 26.0637 72.2174 26.5282 75.6233 26.5282H77.4617C78.3712 26.5282 79.1066 25.7928 79.1066 24.8832V23.0834H77.7133C76.707 23.0834 74.5977 23.0446 73.3592 22.2125C71.7336 21.148 71.8691 19.2321 71.8691 17.858V9.67161H83.5381V19.8901C83.5381 22.4641 84.4477 23.9542 86.0732 25.0187C87.6601 26.0444 89.4598 26.5089 92.8657 26.5089H94.7041C95.6136 26.5089 96.3489 25.7734 96.3489 24.8638V23.064H94.9943Z" fill="#EA0029"/>
<path d="M60.742 24.8646V23.0647H48.357C46.3057 23.0647 43.9641 22.8325 43.2481 20.665C43.0546 20.0457 42.9191 18.749 42.9191 17.8781H57.6458C58.6521 17.8781 59.6003 17.7233 60.3744 17.104C61.4193 16.2718 61.5742 15.0719 61.5742 14.0462C61.5742 11.4916 60.9549 8.95629 57.9941 7.4661C55.6525 6.28555 52.595 6.16943 49.6342 6.16943C47.2346 6.16943 42.9385 6.16943 40.1712 8.0854C37.4039 10.0014 37.1523 12.7882 37.1523 16.5814C37.1523 19.2522 37.2878 22.0584 38.9714 23.9743C41.0807 26.3354 44.1383 26.529 46.7121 26.529H59.1165C60.0067 26.5096 60.742 25.7742 60.742 24.8646ZM55.7687 13.2333C55.7687 13.7752 55.6332 14.4139 54.5301 14.4139H46.5766C44.564 14.4139 42.9191 15.3428 42.9191 16.4847V14.4139C42.9578 13.0785 42.9191 11.9754 44.0609 10.9303C45.5897 9.55624 47.8925 9.59494 49.3632 9.59494C50.9501 9.59494 52.7498 9.67236 54.1431 10.5045C54.9559 11.0077 55.7687 11.9754 55.7687 13.2333Z" fill="#EA0029"/>
<path d="M121.234 24.8646V23.0647H108.849C106.798 23.0647 104.456 22.8325 103.74 20.665C103.547 20.0457 103.411 18.749 103.411 17.8781H118.138C119.144 17.8781 120.092 17.7233 120.867 17.104C121.912 16.2718 122.066 15.0719 122.066 14.0462C122.066 11.4916 121.447 8.95629 118.486 7.4661C116.145 6.28555 113.087 6.16943 110.126 6.16943C107.727 6.16943 103.431 6.16943 100.663 8.0854C97.8961 10.0014 97.6445 12.7882 97.6445 16.5814C97.6445 19.2522 97.78 22.0584 99.4636 23.9743C101.573 26.3354 104.63 26.529 107.204 26.529H119.609C120.499 26.5096 121.234 25.7742 121.234 24.8646ZM116.261 13.2333C116.261 13.7752 116.125 14.4139 115.022 14.4139H107.069C105.037 14.4139 103.411 15.3428 103.411 16.4847V14.4139C103.45 13.0785 103.411 11.9754 104.553 10.9303C106.082 9.55624 108.385 9.59494 109.855 9.59494C111.442 9.59494 113.242 9.67236 114.635 10.5045C115.448 11.0077 116.261 11.9754 116.261 13.2333Z" fill="#EA0029"/>
<path d="M32.3151 0.556641H30.0316C29.1221 0.556641 28.3867 1.29206 28.3867 2.20166V2.66614V6.22712H28.4061C28.5609 5.29816 29.6252 4.31115 31.1734 4.31115H32.3151C33.2246 4.31115 33.96 3.57573 33.96 2.66614V2.20166C33.9794 1.29206 33.2246 0.556641 32.3151 0.556641Z" fill="#EA0029"/>
</svg>
